<svg width="71" height="71" viewBox="0 0 71 71" fill="none" xmlns="http://www.w3.org/2000/svg">
<path fill-rule="evenodd" clip-rule="evenodd" d="M5.49023 22.2533L26.536 6.69775L66.3399 22.2533V69.835H5.49023V22.2533Z" stroke="#EF7F1A" stroke-width="1.83007" stroke-miterlimit="22.9256" stroke-linecap="round" stroke-linejoin="round"/>
<path fill-rule="evenodd" clip-rule="evenodd" d="M1.83008 19.9657L26.536 1.66504L70 18.5931V23.6258L26.536 6.69772L1.83008 24.9984V19.9657Z" stroke="#EF7F1A" stroke-width="1.83007" stroke-miterlimit="22.9256" stroke-linecap="round" stroke-linejoin="round"/>
<path fill-rule="evenodd" clip-rule="evenodd" d="M36.1438 16.763V37.8088H13.7255V22.2532L26.9935 12.6454L36.1438 16.763Z" stroke="#EF7F1A" stroke-width="1.83007" stroke-miterlimit="22.9256" stroke-linecap="round" stroke-linejoin="round"/>
<path fill-rule="evenodd" clip-rule="evenodd" d="M58.5621 37.8088H41.634V17.6781L58.5621 24.0833V37.8088Z" stroke="#EF7F1A" stroke-width="1.83007" stroke-miterlimit="22.9256" stroke-linecap="round" stroke-linejoin="round"/>
<path d="M36.1438 41.469H13.7255V61.5997H36.1438V41.469Z" stroke="#EF7F1A" stroke-width="1.83007" stroke-miterlimit="22.9256" stroke-linecap="round" stroke-linejoin="round"/>
<path d="M58.5621 41.469H41.1765V61.5997H58.5621V41.469Z" stroke="#EF7F1A" stroke-width="1.83007" stroke-miterlimit="22.9256" stroke-linecap="round" stroke-linejoin="round"/>
<path d="M25.1634 41.469V61.5997" stroke="#EF7F1A" stroke-width="0.915033" stroke-miterlimit="22.9256" stroke-linecap="round" stroke-linejoin="round"/>
<path d="M25.1634 14.0179V37.8088" stroke="#EF7F1A" stroke-width="0.915033" stroke-miterlimit="22.9256" stroke-linecap="round" stroke-linejoin="round"/>
<path d="M49.8693 20.8807V37.8088" stroke="#EF7F1A" stroke-width="0.915033" stroke-miterlimit="22.9256" stroke-linecap="round" stroke-linejoin="round"/>
<path d="M49.8693 41.469V61.5997" stroke="#EF7F1A" stroke-width="0.915033" stroke-miterlimit="22.9256" stroke-linecap="round" stroke-linejoin="round"/>
<path d="M13.7255 26.8285H36.1438" stroke="#EF7F1A" stroke-width="0.915033" stroke-miterlimit="22.9256" stroke-linecap="round" stroke-linejoin="round"/>
<path d="M41.634 26.8285H58.5621" stroke="#EF7F1A" stroke-width="0.915033" stroke-miterlimit="22.9256" stroke-linecap="round" stroke-linejoin="round"/>
<path d="M13.7255 51.5343H36.1438" stroke="#EF7F1A" stroke-width="0.915033" stroke-miterlimit="22.9256" stroke-linecap="round" stroke-linejoin="round"/>
<path d="M41.634 51.5343H58.5621" stroke="#EF7F1A" stroke-width="0.915033" stroke-miterlimit="22.9256" stroke-linecap="round" stroke-linejoin="round"/>
</svg>
