<svg width="70" height="75" viewBox="0 0 70 75" fill="none" xmlns="http://www.w3.org/2000/svg">
<path d="M4.77267 0.424316H66.2878C66.2878 0.424316 66.8181 0.954619 66.8181 1.48492V66.7122C66.8181 67.2425 66.2878 67.2425 66.2878 67.2425H4.77267C4.24237 67.2425 4.24237 67.2425 4.24237 66.7122V56.1061H5.83328V65.6516H65.2272V2.54553H5.83328V56.1061H4.24237V1.48492C4.24237 0.954619 4.24237 0.424316 4.77267 0.424316V0.424316Z" fill="#EF7F1A"/>
<path d="M8.48481 4.66675H62.5757L63.106 5.19705V62.4698C63.106 63.0001 62.5757 63.0001 62.5757 63.0001H8.48481C8.48481 63.0001 7.9545 63.0001 7.9545 62.4698V5.19705L8.48481 4.66675ZM62.0454 5.72735H9.01511V55.0455V56.6364V57.6971V61.9395H62.0454V5.72735ZM11.1363 7.31826C82.1969 7.31826 -22.2728 7.31826 11.1363 7.31826V7.31826Z" fill="#EF7F1A"/>
<path fill-rule="evenodd" clip-rule="evenodd" d="M12.1969 8.90918H31.8181V58.7577H12.1969V55.0455V36.4849V8.90918Z" stroke="#EF7F1A" stroke-width="1.06061" stroke-miterlimit="22.9256" stroke-linecap="round" stroke-linejoin="round"/>
<path fill-rule="evenodd" clip-rule="evenodd" d="M33.4091 7.84863H59.9242V60.3486H33.4091V7.84863V7.84863ZM36.0606 9.96985H57.803V57.6971H36.0606V33.8335H35.5303C35 33.8335 34.4697 33.3032 34.4697 32.7729C34.4697 32.2426 35 31.7123 35.5303 31.7123H36.0606V9.96985V9.96985Z" stroke="#EF7F1A" stroke-width="1.06061" stroke-miterlimit="22.9256" stroke-linecap="round" stroke-linejoin="round"/>
<path d="M68.9393 66.7122H1.06055V73.0758H68.9393V66.7122Z" stroke="#EF7F1A" stroke-width="2.12121" stroke-miterlimit="22.9256" stroke-linecap="round" stroke-linejoin="round"/>
<path d="M41.8938 31.7122H35.5302C34.9445 31.7122 34.4696 32.0683 34.4696 32.5076C34.4696 32.9469 34.9445 33.3031 35.5302 33.3031H41.8938C42.4796 33.3031 42.9545 32.9469 42.9545 32.5076C42.9545 32.0683 42.4796 31.7122 41.8938 31.7122Z" stroke="#EF7F1A" stroke-width="1.06061" stroke-miterlimit="22.9256" stroke-linecap="round" stroke-linejoin="round"/>
</svg>
