<svg width="55" height="39" viewBox="0 0 55 39" fill="none" xmlns="http://www.w3.org/2000/svg">
<path fill-rule="evenodd" clip-rule="evenodd" d="M17.551 6.91405V2.69636H10.3401V12.9345C10.3401 13.0705 9.18367 13.9549 9.08163 14.0569C8.84354 14.261 8.63945 14.397 8.43537 14.6011C8.19728 14.8052 7.9932 14.9413 7.7551 15.1453C7.34694 15.5535 6.90476 15.8596 6.46258 16.2338L3.87755 18.4106C3.77551 18.5127 3.67347 18.6147 3.57143 18.6828L0.170068 21.5399C0.0680272 21.6419 0.0680272 21.6079 0 21.71H10.3401V38.6827H18.4354C18.5374 38.6827 18.5374 38.6147 18.6054 38.5127C18.6395 38.4106 18.6735 38.3766 18.7075 38.2746C18.8095 38.1385 18.8775 38.0025 18.9796 37.8664L20.4422 35.2474C20.5782 35.3154 21.3265 36.778 21.4286 36.9481L22.415 38.6827H25.2041C25.2041 38.4106 21.9048 32.9004 21.9048 32.6964C21.9048 32.6283 22.619 31.4038 22.7211 31.2338C22.9932 30.6895 23.2653 30.2134 23.5714 29.7032L25.034 27.1181C25.102 26.9821 25.1701 26.846 25.2381 26.744H22.449L20.9524 29.329C20.8503 29.5331 20.5442 29.9753 20.4762 30.2134L20.3401 30.0093C19.7619 28.9208 19.0476 27.7984 18.4694 26.71H15.7143C15.7143 26.812 15.7823 26.914 15.8503 27.0161L17.415 29.8052C17.517 30.0093 17.6531 30.2134 17.7551 30.4174L18.4694 31.6759C18.6395 31.9821 18.8435 32.2882 18.9796 32.5943C19.0816 32.7984 18.7075 33.2746 18.5714 33.5467L16.9728 36.3358C16.9048 36.4378 16.8707 36.6079 16.7687 36.6079H12.3469V19.6351H5.64626C5.81633 19.397 8.12925 17.5603 8.57143 17.1521C8.74149 17.0161 8.87755 16.914 9.0136 16.778L11.9728 14.329C12.0408 14.261 12.3469 14.0229 12.3469 13.9208V4.73718H15.4762V11.3358L21.2245 6.5399C21.3265 6.47187 21.4286 6.36983 21.5306 6.3018C21.6326 6.19976 21.7347 6.09772 21.8367 6.02969C22.619 5.38344 23.6395 4.46507 24.4218 3.85282C24.5238 3.7848 24.5918 3.71677 24.7279 3.61473C24.8299 3.51269 24.932 3.41065 25.034 3.34262C25.136 3.24058 25.2381 3.17255 25.3741 3.07051C25.4762 2.96847 25.5782 2.90044 25.6803 2.76439C25.9524 2.90044 26.5986 3.51269 26.8707 3.75078L29.2517 5.75759C29.3197 5.82561 29.3537 5.82561 29.3878 5.85963L29.8639 6.23378C30.7143 6.98207 32.2449 8.20656 32.9932 8.88684C33.0612 8.95486 33.0612 8.95486 33.1292 9.02289C33.2653 9.09092 33.3333 9.15895 33.4354 9.26099L34.6258 10.2474C34.7279 10.3494 34.8299 10.4174 34.932 10.5195C35 10.5535 35.2041 10.7576 35.2721 10.7576H52.1769C52.3129 10.7576 52.2789 10.6896 52.2449 10.5875L52.0748 9.77119C52.0068 9.46507 51.9048 8.92085 51.8027 8.68275H36.6667C35.6122 8.68275 36.0884 8.71677 35.1701 8.00248L34.8639 7.76439C34.7619 7.69636 34.6939 7.62833 34.5918 7.52629L34.1497 7.15214C33.0952 6.23378 32.0068 5.34942 30.9184 4.46507L29.2857 3.10452C29.2177 3.0365 29.2177 3.0365 29.1497 2.96847L25.8843 0.247383C25.8163 0.179355 25.8163 0.145342 25.7483 0.111328C25.5442 0.145342 25.3741 0.383437 25.2381 0.519491L24.2177 1.33582C24.1156 1.43786 24.0476 1.47187 23.9456 1.57391L20.7823 4.22697C20.034 4.83922 19.3537 5.48548 18.6054 6.06371L17.8231 6.70997C17.7551 6.77799 17.619 6.88003 17.551 6.91405ZM30.3741 28.9549C30.4762 29.0229 30.5442 29.431 30.5442 29.5671L31.5646 34.397H29.2177L30.3741 28.9549ZM39.3537 35.9276C39.3537 36.3358 39.0136 36.6079 38.5714 36.6419C38.0952 36.6759 37.483 36.6419 37.0068 36.6419L37.483 38.7168C39.0136 38.7168 40.034 38.7168 41.1905 37.7984C41.3945 37.6283 41.4966 37.5263 41.6326 37.3222C41.7347 37.1861 41.8027 37.0841 41.8707 36.9481C42.0408 36.6759 42.1769 36.3698 42.2789 36.0977L42.8571 34.193C43.2993 32.9344 43.6735 31.71 44.0816 30.4515C44.1497 30.2474 45.2721 26.88 45.2721 26.71H42.449L40.9864 31.9481C40.9184 32.1181 40.7823 32.5603 40.7823 32.7304L40.136 31.2338C39.932 30.7236 39.7279 30.2474 39.5238 29.7372L38.6394 27.4583C38.5714 27.3222 38.5374 27.1861 38.5034 27.0841C38.4354 26.9481 38.3673 26.812 38.3673 26.71H35.6803C35.7483 26.914 36.0204 27.5943 36.1224 27.8664C36.2925 28.2406 36.4286 28.6147 36.5986 29.0229L39.3537 35.9276ZM46.1905 29.329V36.0297C46.1905 36.9481 46.7007 37.7304 47.415 38.1725C48.7415 39.0229 51.4966 39.0229 52.9252 38.1725C53.2313 37.9685 53.5714 37.6623 53.7755 37.3222C54.2857 36.4038 54.1496 35.5195 54.1496 34.363H51.6326C51.6326 35.4515 51.8707 36.812 50.4762 36.812C49.6258 36.812 48.8435 36.778 48.8435 35.5875V29.7712C48.8435 28.8188 49.3537 28.5127 50.3401 28.5127C51.8027 28.5127 51.6326 29.6351 51.6326 30.5535H54.1496C54.1496 29.193 54.2857 28.1045 52.9252 27.2202C52.3469 26.812 51.7007 26.71 51.0204 26.6079C50.6803 26.5739 49.7279 26.5399 49.3877 26.6079C48.3673 26.744 47.415 26.9821 46.7687 27.7644C46.4626 28.1045 46.1905 28.7508 46.1905 29.329ZM25.8503 38.6827H28.2993L28.7415 36.71C28.7415 36.6079 28.7415 36.5059 28.8775 36.5059H32.0748L32.2789 37.5603C32.3469 37.9344 32.449 38.3086 32.517 38.6827H35.2381L34.8639 37.0161C34.8299 36.846 34.7619 36.5739 34.7279 36.4379H35.5102L35.034 34.397H34.2857L32.7211 27.6964C32.6871 27.5263 32.6531 27.3562 32.619 27.1861C32.585 27.0841 32.517 26.846 32.517 26.71H28.6735C28.5374 26.71 28.5374 26.88 28.5034 27.0161C28.2653 28.2746 27.8231 29.8052 27.551 31.1317C27.449 31.6079 27.3129 32.1181 27.2109 32.6283L26.0204 37.9004C25.9864 38.0025 25.9524 38.1385 25.9184 38.2746C25.9184 38.4106 25.8503 38.5467 25.8503 38.6827Z" fill="#EF7D00"/>
<path fill-rule="evenodd" clip-rule="evenodd" d="M35.6462 12.8664V24.7372H38.3673V22.5943H41.3605V24.7372H43.9796C44.0476 24.7372 44.0816 24.7032 44.0816 24.6351V12.8664C44.0816 12.7644 44.0476 12.7644 43.9796 12.7644H41.3605V20.5535H38.3673V12.8664C38.3673 12.7644 38.3333 12.7644 38.2313 12.7644H35.7483C35.6803 12.7644 35.6462 12.7644 35.6462 12.8664ZM25.6122 24.7032H28.2653V21.0637C28.2653 20.9957 28.5714 20.6215 28.6394 20.5535C28.7415 20.4175 29.0136 20.0773 29.0476 19.9753C29.1837 20.0773 29.1496 20.1113 29.2177 20.2474L30.034 21.744C30.2381 22.1521 31.5986 24.5331 31.6326 24.7032H34.4218C34.3877 24.5671 34.0816 24.0229 33.9796 23.8528C33.3673 22.8324 32.7211 21.6079 32.1428 20.5875L30.7143 18.1045C31.3265 17.1862 31.9388 16.3358 32.551 15.4515L33.4354 14.0909C33.6054 13.8528 33.7415 13.6828 33.9115 13.4447C34.0476 13.2066 34.2177 12.9685 34.3537 12.7644H31.6326C31.5986 12.8664 31.3605 13.2066 31.2585 13.3766C31.0884 13.5807 30.9524 13.7508 30.8163 13.9549C30.5442 14.397 30.2721 14.7712 29.966 15.1794L28.2653 17.6283V12.7644H25.6122V24.7032ZM49.8979 14.9753C49.8979 15.1453 50 15.4855 50.034 15.6556C50.102 15.8936 50.17 16.1658 50.2041 16.3698C50.3061 16.846 50.4081 17.3222 50.5442 17.7984L51.1564 20.5875H48.6054C49.0136 18.8868 49.3877 17.0161 49.7959 15.3154C49.8299 15.2474 49.8299 15.2474 49.8299 15.1453L49.8979 14.9753ZM45.3401 24.7372H47.7891C47.9592 24.0229 48.0952 23.3086 48.2653 22.6283H51.5646C51.5646 22.8324 51.9728 24.6692 52.0068 24.7372H54.7279L54.2177 22.6283H55L54.5578 20.5875H53.7755L53.0952 17.6283C53.0272 17.3222 52.9592 16.9821 52.8571 16.6419L52.0408 12.9345C52.0068 12.8324 52.0408 12.7644 51.9047 12.7644H48.1632C48.0272 12.7644 48.0272 12.9345 47.9932 13.0365L47.3809 15.6896C47.1768 16.71 46.9388 17.6624 46.7007 18.6828L45.5102 23.9549C45.4422 24.1249 45.3401 24.5331 45.3401 24.7372ZM19.932 22.9004C19.3537 22.9004 18.7075 22.8664 18.4694 22.2202C18.4354 22.0501 18.4013 21.88 18.4013 21.676V15.8256C18.4013 15.3494 18.5034 15.0773 18.7755 14.8732C19.2517 14.4651 20.4081 14.4991 20.8503 14.9073C21.1224 15.1453 21.1905 15.5195 21.1905 15.9957V21.5739C21.1905 22.3902 20.8163 22.9004 19.932 22.9004ZM15.7143 15.9277C15.7143 16.9141 15.6462 21.846 15.7823 22.4923C16.1564 24.295 17.8911 24.8732 19.7619 24.8732C20.8503 24.8732 21.9388 24.6351 22.585 24.227C23.2993 23.7508 23.8435 23.0365 23.8435 22.0501V15.4175C23.8435 14.9413 23.6735 14.4991 23.4694 14.159C22.8571 13.1045 21.4626 12.6624 20.1701 12.6624C18.8775 12.6624 17.7211 12.6964 16.7347 13.4447C15.9184 14.0569 15.7143 14.8732 15.7143 15.9277Z" fill="white"/>
</svg>
