<svg width="90" height="83" viewBox="0 0 90 83" fill="none" xmlns="http://www.w3.org/2000/svg">
<path fill-rule="evenodd" clip-rule="evenodd" d="M69.595 19.4659H81.1652C85.4471 19.4659 89.0001 22.9734 89.0001 27.2553V62.8769C89.0001 67.1587 85.4471 70.7118 81.1652 70.7118H72.6014C72.6014 70.7118 73.8769 78.3645 65.6775 81.5532C69.4128 75.3125 60.8946 70.7118 60.8946 70.7118H28.5072C24.1797 70.7118 20.6722 67.1587 20.6722 62.8769V60.4171C21.6288 61.3281 22.9043 62.148 24.5441 62.8313C20.8089 56.5907 29.3726 51.9444 29.3726 51.9444H61.7601C66.0419 51.9444 69.595 48.4369 69.595 44.1095V19.4659V19.4659Z" stroke="#EF7F1A" stroke-width="1.37339" stroke-miterlimit="22.9256" stroke-linecap="round" stroke-linejoin="round"/>
<path fill-rule="evenodd" clip-rule="evenodd" d="M61.7601 0.698486H9.10203C4.7746 0.698486 1.26709 4.25154 1.26709 8.53342V44.1095C1.26709 48.4369 4.7746 51.9444 9.10203 51.9444H17.6203C17.6203 51.9444 16.3903 59.5971 24.5441 62.8313C20.8089 56.5907 29.3726 51.9444 29.3726 51.9444H61.7601C66.042 51.9444 69.595 48.4369 69.595 44.1095V8.53342C69.595 4.25154 66.042 0.698486 61.7601 0.698486V0.698486Z" stroke="#EF7F1A" stroke-width="1.37339" stroke-miterlimit="22.9256" stroke-linecap="round" stroke-linejoin="round"/>
<path d="M54.2896 33.1315H50.8276C50.1483 33.1315 49.5977 33.6821 49.5977 34.3614V43.5629C49.5977 44.2421 50.1483 44.7928 50.8276 44.7928H54.2896C54.9688 44.7928 55.5195 44.2421 55.5195 43.5629V34.3614C55.5195 33.6821 54.9688 33.1315 54.2896 33.1315Z" stroke="#EF7F1A" stroke-width="1.37339" stroke-miterlimit="22.9256"/>
<path d="M49.5977 34.3158C48.2312 33.2681 46.819 32.1749 45.9991 31.3094C45.1336 30.3984 44.8148 29.6695 44.5415 28.9407C44.2681 28.1663 43.9948 27.3919 43.8582 26.7086C43.7215 25.9798 43.676 25.3421 43.6304 24.8866C43.5393 24.4766 43.4027 24.2944 43.0838 24.2033C42.8105 24.1122 42.4005 24.1577 42.0361 24.2033C41.6717 24.2944 41.3528 24.3855 41.1251 24.7955C40.8973 25.1599 40.7151 25.7976 40.624 26.6631C40.5329 27.5286 40.5784 28.5307 40.6695 29.5329C40.7607 30.4895 40.8973 31.4005 41.1706 31.9471C41.3984 32.5393 41.6717 32.8126 41.7628 32.9948C41.8083 33.1315 41.6261 33.1315 40.3507 33.1315C39.0752 33.1315 36.7521 33.1315 35.5222 33.177C34.2467 33.2226 34.1101 33.3137 33.8823 33.5414C33.7001 33.7692 33.4268 34.1336 33.3357 34.498C33.199 34.8624 33.2446 35.1813 33.4268 35.5457C33.609 35.9101 34.019 36.2746 34.1556 36.4568C34.2923 36.6845 34.2467 36.6845 34.1556 36.8212C34.0645 36.9123 33.9279 37.14 33.8823 37.4134C33.8368 37.6867 33.8823 38.0511 34.019 38.3699C34.2012 38.6888 34.4745 39.0077 34.7023 39.1899C34.8845 39.3721 35.0211 39.4632 35.0666 39.5087C35.0666 39.5543 35.0211 39.5998 34.8844 39.8276C34.7933 40.0098 34.6567 40.3742 34.6567 40.7386C34.6567 41.1486 34.8389 41.5586 35.1122 41.8774C35.4311 42.1963 35.8866 42.4241 36.0688 42.5607C36.2966 42.6974 36.2055 42.6974 36.1144 42.834C36.0688 42.9251 35.9322 43.1073 35.9777 43.4262C36.0233 43.6995 36.2055 44.1095 36.4788 44.4283C36.7521 44.7472 37.1165 44.975 38.7108 45.0661C40.3051 45.1572 43.0838 45.1116 45.0881 44.7472C47.1379 44.4283 48.3678 43.8362 49.5977 43.244" stroke="#EF7F1A" stroke-width="1.37339" stroke-miterlimit="22.9256"/>
<path fill-rule="evenodd" clip-rule="evenodd" d="M11.1974 37.55L12.4728 36.5934L13.065 34.9536L14.386 35.8646L16.1625 35.9557L15.707 37.5045L16.1625 39.1899L14.5227 39.2354L13.065 40.1465L12.564 38.6433L11.1974 37.55Z" stroke="#EF7F1A" stroke-width="0.686695" stroke-miterlimit="22.9256" stroke-linecap="round" stroke-linejoin="round"/>
<path fill-rule="evenodd" clip-rule="evenodd" d="M11.1974 27.3008L12.4728 26.3442L13.065 24.7043L14.386 25.6154L16.1625 25.7065L15.707 27.2553L16.1625 28.9407H14.5227L13.065 29.8973L12.564 28.3941L11.1974 27.3008Z" stroke="#EF7F1A" stroke-width="0.686695" stroke-miterlimit="22.9256" stroke-linecap="round" stroke-linejoin="round"/>
<path fill-rule="evenodd" clip-rule="evenodd" d="M11.1974 16.8694L12.4728 15.8673L13.065 14.2274L14.386 15.1385L16.1625 15.2296L15.707 16.7783L16.1625 18.4637L14.5227 18.5093L13.065 19.4659L12.564 17.9627L11.1974 16.8694Z" stroke="#EF7F1A" stroke-width="0.686695" stroke-miterlimit="22.9256" stroke-linecap="round" stroke-linejoin="round"/>
<path fill-rule="evenodd" clip-rule="evenodd" d="M19.3057 32.8126L20.5811 31.8561L21.2188 30.2162L22.5398 31.1272L24.2708 31.2183L23.8153 32.7671L24.2708 34.4525L22.6765 34.4981L21.2188 35.4547L20.6722 33.9514L19.3057 32.8126Z" stroke="#EF7F1A" stroke-width="0.686695" stroke-miterlimit="22.9256" stroke-linecap="round" stroke-linejoin="round"/>
<path fill-rule="evenodd" clip-rule="evenodd" d="M19.3057 22.3813L20.5811 21.4247L21.2188 19.7848L22.5398 20.6958L24.2708 20.7869L23.8153 22.3357L24.2708 24.0211H22.6765L21.2188 24.9777L20.6722 23.4745L19.3057 22.3813Z" stroke="#EF7F1A" stroke-width="0.686695" stroke-miterlimit="22.9256" stroke-linecap="round" stroke-linejoin="round"/>
<path d="M32.0146 62.7402H55.3828" stroke="#EF7F1A" stroke-width="0.686695" stroke-miterlimit="22.9256" stroke-linecap="round" stroke-linejoin="round"/>
<path d="M64.9488 62.7402H80.8919" stroke="#EF7F1A" stroke-width="0.686695" stroke-miterlimit="22.9256" stroke-linecap="round" stroke-linejoin="round"/>
<path d="M31.468 15.6851L33.5178 15.4573C33.5634 15.8673 33.7 16.1861 33.9278 16.3684C34.1555 16.5961 34.4289 16.6872 34.7477 16.6872C35.2032 16.6872 35.5677 16.4595 35.8865 16.095C36.2054 15.6851 36.3876 14.8196 36.4787 13.5441C35.9321 14.1819 35.2488 14.4552 34.4289 14.4552C33.5634 14.4552 32.8345 14.1363 32.1968 13.453C31.5591 12.7698 31.2402 11.9043 31.2402 10.811C31.2402 9.67222 31.5591 8.76118 32.2424 8.0779C32.9257 7.39463 33.7456 7.03021 34.7933 7.03021C35.9321 7.03021 36.8431 7.48573 37.5719 8.35122C38.3008 9.2167 38.6652 10.6744 38.6652 12.6786C38.6652 14.7285 38.3008 16.1861 37.5264 17.0972C36.7976 18.0082 35.7954 18.4637 34.6111 18.4637C33.7456 18.4637 33.0168 18.236 32.5157 17.7805C31.9691 17.2794 31.6046 16.5961 31.468 15.6851ZM36.2965 10.9932C36.2965 10.3099 36.1143 9.76333 35.7954 9.39891C35.4766 8.98894 35.1122 8.80674 34.7022 8.80674C34.2922 8.80674 33.9733 8.98894 33.7456 9.30781C33.4723 9.58112 33.3356 10.1277 33.3356 10.811C33.3356 11.5399 33.4723 12.0409 33.7456 12.4053C34.0189 12.7242 34.3833 12.9064 34.8388 12.9064C35.2488 12.9064 35.5677 12.7242 35.841 12.4053C36.1143 12.0865 36.2965 11.631 36.2965 10.9932ZM40.1228 15.6851L42.2182 15.4573C42.2638 15.8673 42.4004 16.1861 42.5827 16.3684C42.8104 16.5961 43.0837 16.6872 43.4482 16.6872C43.8581 16.6872 44.2225 16.4595 44.5414 16.095C44.8603 15.6851 45.0424 14.8196 45.1336 13.5441C44.5869 14.1819 43.9037 14.4552 43.1293 14.4552C42.2183 14.4552 41.4894 14.1363 40.8517 13.453C40.214 12.7698 39.8951 11.9043 39.8951 10.811C39.8951 9.67222 40.2139 8.76118 40.8972 8.0779C41.5805 7.39463 42.446 7.03021 43.4482 7.03021C44.5869 7.03021 45.5435 7.48573 46.2723 8.35122C46.9556 9.2167 47.3201 10.6744 47.3201 12.6786C47.3201 14.7285 46.9557 16.1861 46.2268 17.0972C45.4524 18.0082 44.4958 18.4637 43.2659 18.4637C42.4005 18.4637 41.7172 18.236 41.1706 17.7805C40.6239 17.2794 40.2595 16.5961 40.1228 15.6851ZM44.9514 10.9932C44.9514 10.3099 44.7692 9.76333 44.4503 9.39891C44.1314 8.98894 43.767 8.80674 43.357 8.80674C42.9926 8.80674 42.6282 8.98894 42.4004 9.30781C42.1271 9.58112 41.9905 10.1277 41.9905 10.811C41.9905 11.5399 42.1271 12.0409 42.4004 12.4053C42.7193 12.7242 43.0382 12.9064 43.4937 12.9064C43.9036 12.9064 44.2225 12.7242 44.5414 12.4053C44.8147 12.0865 44.9514 11.631 44.9514 10.9932ZM48.7322 9.85443C48.7322 8.85229 48.9599 8.12346 49.3699 7.62238C49.8254 7.16687 50.4176 6.89355 51.192 6.89355C51.9663 6.89355 52.5585 7.12131 53.014 7.62238C53.424 8.0779 53.6518 8.85229 53.6518 9.85443C53.6518 10.8566 53.424 11.5854 53.014 12.0409C52.5585 12.542 51.9663 12.7698 51.192 12.7698C50.4176 12.7698 49.8254 12.542 49.3699 12.0409C48.9599 11.5854 48.7322 10.8566 48.7322 9.85443ZM50.4176 9.85443C50.4176 10.5377 50.4632 11.0388 50.6454 11.2665C50.782 11.4487 50.9642 11.5399 51.192 11.5399C51.4197 11.5399 51.6019 11.4487 51.693 11.2665C51.8752 11.0388 51.9663 10.5377 51.9663 9.85443C51.9663 9.1256 51.8752 8.62453 51.693 8.39677C51.6019 8.21456 51.4197 8.12346 51.192 8.12346C50.9642 8.12346 50.782 8.21456 50.6454 8.39677C50.4632 8.62453 50.4176 9.1256 50.4176 9.85443ZM52.7863 18.6915H51.2375L57.1593 6.89355H58.708L52.7863 18.6915ZM56.2482 15.7762C56.2482 14.774 56.476 13.9997 56.9315 13.5441C57.3415 13.0431 57.9337 12.8153 58.708 12.8153C59.4824 12.8153 60.0746 13.0431 60.5301 13.5441C60.9401 13.9997 61.1678 14.774 61.1678 15.7762C61.1678 16.7783 60.9401 17.5072 60.5301 18.0082C60.0746 18.4637 59.4824 18.6915 58.7536 18.6915C57.9337 18.6915 57.3415 18.4637 56.9315 18.0082C56.476 17.5072 56.2482 16.7783 56.2482 15.7762ZM57.9337 15.7762C57.9337 16.505 58.0247 16.9605 58.1614 17.2338C58.2981 17.416 58.4803 17.5072 58.708 17.5072C58.9358 17.5072 59.118 17.416 59.2091 17.2338C59.3913 16.9605 59.4824 16.505 59.4824 15.7762C59.4824 15.0473 59.3913 14.5463 59.2547 14.3185C59.118 14.0908 58.9358 13.9997 58.708 13.9997C58.4803 13.9997 58.2981 14.0908 58.1614 14.3185C58.0247 14.5463 57.9337 15.0473 57.9337 15.7762Z" fill="#EF7F1A"/>
<path d="M32.1969 56.6818H75.9723" stroke="#EF7F1A" stroke-width="0.686695" stroke-miterlimit="22.9256" stroke-linecap="round" stroke-linejoin="round"/>
<path d="M64.4021 51.0334H80.3453" stroke="#EF7F1A" stroke-width="0.686695" stroke-miterlimit="22.9256" stroke-linecap="round" stroke-linejoin="round"/>
<path d="M69.185 45.7949H77.3844" stroke="#EF7F1A" stroke-width="0.686695" stroke-miterlimit="22.9256" stroke-linecap="round" stroke-linejoin="round"/>
<path d="M69.5495 39.4177H82.0307" stroke="#EF7F1A" stroke-width="0.686695" stroke-miterlimit="22.9256" stroke-linecap="round" stroke-linejoin="round"/>
<path d="M69.5495 32.9948H76.9745" stroke="#EF7F1A" stroke-width="0.686695" stroke-miterlimit="22.9256" stroke-linecap="round" stroke-linejoin="round"/>
</svg>
