<svg width="115" height="81" viewBox="0 0 115 81" fill="none" xmlns="http://www.w3.org/2000/svg">
<path d="M24.1866 0.278809H109.187C109.915 0.278809 110.508 0.734328 110.508 1.3265V72.5697C110.508 73.1619 109.915 73.6174 109.187 73.6174H24.1866C23.4578 73.6174 22.8656 73.1619 22.8656 72.5697V61.2273H25.5077V71.5676H107.866V2.3742H25.5077V39.7268H22.8656V1.3265C22.8656 0.734328 23.4578 0.278809 24.1866 0.278809Z" fill="#EF7F1A"/>
<path fill-rule="evenodd" clip-rule="evenodd" d="M30.7006 8.61481H60.2182V65.327H30.7006V61.2273H44.2751C46.6893 61.2273 48.648 59.223 48.648 56.8087V44.1453C48.648 41.7311 46.6893 39.7268 44.2751 39.7268H30.7006V8.61481V8.61481Z" stroke="#EF7F1A" stroke-width="0.686695" stroke-miterlimit="22.9256" stroke-linecap="round" stroke-linejoin="round"/>
<path fill-rule="evenodd" clip-rule="evenodd" d="M62.8603 6.92938H103.083V66.9668H62.8603V6.92938ZM65.6389 9.70805H100.258V64.2337H65.6389V36.6748H64.819C64.2268 36.6748 63.7713 36.2193 63.7713 35.6727C63.7713 35.126 64.2268 34.6705 64.819 34.6705H65.6389V9.70805V9.70805Z" stroke="#EF7F1A" stroke-width="0.686695" stroke-miterlimit="22.9256" stroke-linecap="round" stroke-linejoin="round"/>
<path d="M113.605 72.9341H19.4948V79.7214H113.605V72.9341Z" stroke="#EF7F1A" stroke-width="1.37339" stroke-miterlimit="22.9256" stroke-linecap="round" stroke-linejoin="round"/>
<path d="M69.6019 34.6705H64.8645C64.311 34.6705 63.8624 35.1191 63.8624 35.6726C63.8624 36.2261 64.311 36.6748 64.8645 36.6748H69.6019C70.1554 36.6748 70.6041 36.2261 70.6041 35.6726C70.6041 35.1191 70.1554 34.6705 69.6019 34.6705Z" stroke="#EF7F1A" stroke-width="0.686695" stroke-miterlimit="22.9256" stroke-linecap="round" stroke-linejoin="round"/>
<path fill-rule="evenodd" clip-rule="evenodd" d="M12.2976 39.7267H44.275C46.6893 39.7267 48.648 41.731 48.648 44.1453V56.8087C48.648 59.223 46.6893 61.2273 44.275 61.2273H12.2976C10.2933 61.2273 8.56234 59.8151 8.06127 57.9475C4.28046 57.5831 1.31958 54.44 1.31958 50.6137C1.31958 46.7873 4.23491 43.6442 8.01572 43.2342C8.42569 41.2755 10.2022 39.7267 12.2976 39.7267V39.7267Z" stroke="#EF7F1A" stroke-width="1.37339" stroke-miterlimit="22.9256"/>
<path d="M8.06125 53.0279C9.54555 53.0279 10.7488 51.8246 10.7488 50.3403C10.7488 48.856 9.54555 47.6528 8.06125 47.6528C6.57695 47.6528 5.37369 48.856 5.37369 50.3403C5.37369 51.8246 6.57695 53.0279 8.06125 53.0279Z" stroke="#EF7F1A" stroke-width="0.686695" stroke-miterlimit="22.9256"/>
<path d="M35.9391 49.3838H32.0216V57.0821H35.9391V49.3838Z" stroke="#EF7F1A" stroke-width="0.686695" stroke-miterlimit="22.9256"/>
<path d="M32.0216 50.2037C31.1106 49.4749 30.1995 48.7916 29.6529 48.1994C29.0607 47.6072 28.8785 47.1062 28.6963 46.6051C28.5141 46.104 28.3319 45.603 28.2408 45.1474C28.1497 44.6464 28.1497 44.2364 28.0586 43.9631C28.013 43.6898 27.9219 43.5531 27.7397 43.462C27.5575 43.4165 27.2386 43.462 27.0109 43.462C26.7831 43.5076 26.6009 43.5987 26.4187 43.872C26.2821 44.0997 26.1454 44.5553 26.0999 45.1019C26.0543 45.6941 26.0543 46.3773 26.0999 47.0151C26.191 47.6528 26.2821 48.245 26.4187 48.6094C26.6009 49.0194 26.7831 49.2016 26.8287 49.2927C26.8742 49.3838 26.7376 49.3838 25.9176 49.3838C25.0977 49.3838 23.549 49.3838 22.6835 49.4293C21.8635 49.4293 21.7724 49.5204 21.6358 49.6571C21.4991 49.8393 21.3169 50.067 21.2714 50.2948C21.1802 50.5226 21.1802 50.7503 21.3169 50.9781C21.4536 51.2514 21.7269 51.4792 21.818 51.6158C21.9091 51.7525 21.8635 51.7525 21.818 51.8436C21.7269 51.8891 21.6813 52.0258 21.6358 52.208C21.5902 52.4358 21.6358 52.6635 21.7269 52.8913C21.818 53.0735 22.0002 53.3012 22.1368 53.3923C22.319 53.529 22.4102 53.5745 22.4102 53.6201C22.4102 53.6656 22.3646 53.7112 22.319 53.8023C22.2279 53.939 22.1368 54.1667 22.1368 54.44C22.1368 54.7133 22.2735 54.9867 22.4557 55.1689C22.6835 55.3966 22.9568 55.5333 23.0934 55.6244C23.2301 55.7155 23.1845 55.7155 23.139 55.8066C23.0479 55.8977 23.0023 55.9888 23.0479 56.2166C23.0479 56.3988 23.1845 56.6721 23.3667 56.8998C23.5489 57.082 23.7767 57.2187 24.8244 57.3098C25.8721 57.3554 27.7397 57.3098 29.0607 57.082C30.3817 56.8998 31.2017 56.4899 32.0216 56.0799" stroke="#EF7F1A" stroke-width="0.686695" stroke-miterlimit="22.9256"/>
<path d="M9.01784 52.8457C9.10894 52.0713 9.2456 51.2514 8.60787 50.8414C8.0157 50.4315 6.69469 50.3859 5.37369 51.3425C4.00713 52.2991 2.64056 54.2123 2.45835 56.3532C2.27615 58.4942 3.27829 60.8629 5.23703 62.5483C7.19576 64.2337 10.1566 65.2814 12.5253 66.1924C14.9396 67.1035 16.8528 67.8779 17.946 68.9711C18.9937 70.0643 19.267 71.522 19.4948 72.9341" stroke="#EF7F1A" stroke-width="0.686695" stroke-miterlimit="22.9256"/>
<path d="M12.2976 61.2273C13.6641 62.8672 14.9851 64.5526 16.215 65.7825C17.3994 67.0579 18.4926 67.9234 19.0393 69.0167C19.5403 70.1555 19.5403 71.5676 19.4948 72.9341" stroke="#EF7F1A" stroke-width="0.686695" stroke-miterlimit="22.9256"/>
</svg>
