<svg width="85" height="96" viewBox="0 0 85 96" fill="none" xmlns="http://www.w3.org/2000/svg">
<path fill-rule="evenodd" clip-rule="evenodd" d="M1.23218 7.33167H18.132V11.4313H50.3372V7.33167H67.738V57.1655C66.8725 57.0288 65.9614 56.9833 65.0504 56.9833C63.365 56.9833 61.6795 57.211 60.1308 57.621V16.7609H17.5853L9.29488 23.7759V75.5685H46.1464C46.1464 75.7051 46.1464 75.7962 46.1464 75.8873C46.1464 78.6204 46.693 81.2169 47.7407 83.5856H1.23218V7.33167V7.33167Z" stroke="#EF7F1A" stroke-width="1.37339" stroke-miterlimit="22.9256" stroke-linecap="round" stroke-linejoin="round"/>
<path fill-rule="evenodd" clip-rule="evenodd" d="M18.132 3.50537H27.9256V4.82638H39.678V3.50537H50.3372V11.4314H18.132V3.50537Z" stroke="#EF7F1A" stroke-width="1.37339" stroke-miterlimit="22.9256" stroke-linecap="round" stroke-linejoin="round"/>
<path d="M39.678 1H27.9257V4.82636H39.678V1Z" stroke="#EF7F1A" stroke-width="1.37339" stroke-miterlimit="22.9256" stroke-linecap="round" stroke-linejoin="round"/>
<path fill-rule="evenodd" clip-rule="evenodd" d="M17.5853 16.761H60.1308V57.6211C52.1592 59.762 46.283 67.0048 46.1464 75.5685H9.29486V23.776L17.5853 16.761V16.761Z" stroke="#EF7F1A" stroke-width="1.37339" stroke-miterlimit="22.9256" stroke-linecap="round" stroke-linejoin="round"/>
<path fill-rule="evenodd" clip-rule="evenodd" d="M17.5853 16.761L9.29486 23.8671L17.5853 23.7304V16.761Z" stroke="#EF7F1A" stroke-width="0.686695" stroke-miterlimit="22.9256" stroke-linecap="round" stroke-linejoin="round"/>
<path d="M18.7241 32.6586H50.2916" stroke="#EF7F1A" stroke-width="0.686695" stroke-miterlimit="22.9256" stroke-linecap="round" stroke-linejoin="round"/>
<path d="M19.043 36.8949H38.4482" stroke="#EF7F1A" stroke-width="0.686695" stroke-miterlimit="22.9256" stroke-linecap="round" stroke-linejoin="round"/>
<path d="M18.7241 46.0509H50.2916" stroke="#EF7F1A" stroke-width="0.686695" stroke-miterlimit="22.9256" stroke-linecap="round" stroke-linejoin="round"/>
<path d="M19.043 50.3328H38.4482" stroke="#EF7F1A" stroke-width="0.686695" stroke-miterlimit="22.9256" stroke-linecap="round" stroke-linejoin="round"/>
<path d="M18.7241 58.3043H46.4652" stroke="#EF7F1A" stroke-width="0.686695" stroke-miterlimit="22.9256" stroke-linecap="round" stroke-linejoin="round"/>
<path d="M19.043 62.5862H38.4482" stroke="#EF7F1A" stroke-width="0.686695" stroke-miterlimit="22.9256" stroke-linecap="round" stroke-linejoin="round"/>
<path d="M65.0504 94.8369C75.516 94.8369 84 86.3529 84 75.8873C84 65.4218 75.516 56.9377 65.0504 56.9377C54.5848 56.9377 46.1008 65.4218 46.1008 75.8873C46.1008 86.3529 54.5848 94.8369 65.0504 94.8369Z" stroke="#EF7F1A" stroke-width="1.37339" stroke-miterlimit="22.9256"/>
<path fill-rule="evenodd" clip-rule="evenodd" d="M63.3195 85.681C63.3651 85.681 63.365 85.681 63.4106 85.6354H63.4562H63.5017C63.6839 85.6354 64.0028 85.271 64.185 85.0433L64.2761 84.9521L64.4127 84.861C64.5949 84.6788 64.9594 84.3144 64.9594 84.1322V84.0867C65.0049 84.0411 65.0049 84.0411 65.0049 84.0411C65.0049 83.9956 65.0049 83.95 65.0049 83.9045L64.8683 83.6767C64.8683 83.6311 64.8683 83.5856 64.8683 83.5856C64.8227 83.54 64.8227 83.54 64.7772 83.4945C64.7316 83.4489 64.6861 83.4489 64.595 83.4034H64.5494C64.4583 83.3578 64.3216 83.3123 64.2761 83.3123C64.185 83.3123 64.1394 83.3578 64.0939 83.4034C64.0939 83.4489 63.8661 83.6311 63.8206 83.7222C63.775 83.7222 63.7295 83.7678 63.6839 83.8133C63.6384 83.8589 63.5928 83.9045 63.5928 83.95L63.2739 84.2233C63.2284 84.2689 63.1828 84.3144 63.1373 84.3144C63.0917 84.36 63.0918 84.4055 63.0462 84.4511V84.4966C62.9551 84.5877 62.8184 84.7244 62.7273 84.7699C62.6818 84.8155 62.6818 84.8155 62.6818 84.9066C62.6818 84.9977 62.6818 85.0433 62.6818 85.0888L62.7273 85.1799C62.7273 85.271 62.7729 85.3621 62.8184 85.4532C62.864 85.4988 62.9095 85.5443 63.0006 85.5443L63.1373 85.6354C63.1828 85.6354 63.2284 85.681 63.3195 85.681ZM55.9856 69.6467L57.9444 71.0133C58.2632 71.241 58.491 71.5599 58.5365 71.9243C58.5821 72.1521 58.5366 72.3798 58.491 72.6076C58.5366 72.6076 58.5821 72.6531 58.6732 72.6531L58.8099 72.6987C58.8554 72.7442 58.901 72.7442 58.9465 72.7442C59.0376 72.7898 59.1287 72.7898 59.1743 72.7898L59.2654 72.8353L59.7665 72.8809H59.8575C60.0398 72.9264 60.2675 72.9264 60.3131 72.8809L60.3586 72.8353H60.4042C60.4497 72.8809 60.5408 72.8353 60.6319 72.8353C60.723 72.8353 60.8141 72.7898 60.8597 72.7898L60.9053 72.7442C60.9964 72.7442 61.0875 72.6987 61.1786 72.6987C61.2697 72.6531 61.3152 72.6076 61.3608 72.6076L61.4063 72.562H61.4519C61.4974 72.562 61.5885 72.5165 61.6796 72.4709C61.7707 72.4709 61.8163 72.4254 61.8618 72.4254C61.9529 72.3798 62.044 72.3798 62.1351 72.3343C62.2718 72.3343 62.3629 72.2887 62.454 72.2887C62.4996 72.2887 62.5451 72.2887 62.5451 72.2887L62.5907 72.2432L63.4562 72.2887H63.5017C63.5473 72.3798 63.7294 72.3798 63.8661 72.4254C63.9117 72.4254 64.0028 72.4254 64.0483 72.4254C64.1394 72.4709 64.2305 72.5165 64.3217 72.562C64.4128 72.562 64.5038 72.6076 64.595 72.6076L64.6405 72.6531C64.6861 72.6531 64.7771 72.6987 64.8683 72.7442C64.9594 72.7898 65.0049 72.7898 65.0505 72.8353C65.0505 72.8353 65.0505 72.8809 65.0505 72.8353L65.5515 72.6531C65.8704 72.4709 66.2804 72.3798 66.6903 72.2887C66.7359 72.2887 66.7359 72.2887 66.7815 72.2887C66.8726 72.2887 66.9181 72.2887 66.9636 72.2887V72.2432H67.6469V72.2887C67.6925 72.2887 67.738 72.2887 67.8291 72.3343C68.0113 72.3343 68.2391 72.3798 68.2846 72.4254H68.3302C68.4213 72.4709 68.6946 72.562 68.9679 72.6531C69.1501 72.6987 69.2868 72.7442 69.2868 72.7442H69.3324L69.3779 72.7898C69.4235 72.7898 69.4234 72.7898 69.4234 72.7898L69.469 72.8353H69.5146C69.5601 72.8353 69.6512 72.8353 69.6968 72.8809H69.7423H70.38H70.4712C70.6078 72.8809 70.8811 72.8809 70.9722 72.7898H71.0178H71.0633C71.1089 72.7898 71.2 72.7898 71.2455 72.7898C71.3366 72.7442 71.4277 72.6987 71.5188 72.6531C71.6555 72.6531 71.7466 72.562 71.8833 72.5165C71.8377 72.3343 71.8377 72.1521 71.8833 71.9698C71.9288 71.651 72.111 71.3321 72.4299 71.1044L74.4342 69.7378C74.7531 69.51 75.1174 69.4189 75.4363 69.51C75.8007 69.5556 76.1196 69.7378 76.3474 70.0567L79.6271 74.7485C79.8549 75.0674 79.9004 75.4318 79.8549 75.7962C79.8093 76.1151 79.5816 76.4339 79.3083 76.6617L77.304 78.0738C76.9851 78.256 76.6207 78.3471 76.3018 78.3016C76.1196 78.256 75.9829 78.2105 75.8463 78.1194L74.7986 78.9393C74.4797 79.3037 73.7965 79.7592 73.432 80.0325L73.5687 80.2603C73.7054 80.397 73.842 80.6247 73.9331 80.8069C73.9787 80.898 74.0242 80.9891 74.0698 81.0802C74.0698 81.1713 74.1153 81.308 74.1153 81.3991C74.1153 81.5813 74.1153 81.718 74.0698 81.8091C74.0698 81.9002 74.0698 81.9913 74.0698 82.0368V82.0824L74.0242 82.1279C74.0242 82.1279 73.9787 82.1735 73.9331 82.2646C73.7509 82.5379 73.3409 83.1756 72.2021 82.9934V83.1301C72.1566 83.3123 72.111 83.4945 72.0199 83.6311C71.9288 83.7678 71.7922 83.9045 71.6555 83.9956C71.3367 84.2233 71.2 84.2233 70.9722 84.2689C70.8811 84.2689 70.79 84.2689 70.6078 84.2689V84.3144C70.5623 84.2689 70.4711 84.2233 70.4256 84.2233C70.38 84.3144 70.38 84.4055 70.38 84.4511C70.3345 84.6333 70.2889 84.7699 70.1067 84.9977C69.9701 85.2255 69.7423 85.3166 69.6057 85.4077C69.5146 85.4532 69.469 85.4532 69.469 85.4988L69.4234 85.5443C69.3323 85.5443 69.1957 85.5443 69.1046 85.5443C68.7857 85.5899 68.6491 85.5443 68.4213 85.4532H68.3302C68.2847 85.5443 68.2391 85.681 68.1936 85.7721C68.148 85.9087 68.0569 85.9998 67.9658 86.0909C67.8291 86.2276 67.6469 86.2732 67.4647 86.3643L67.2825 86.4554L66.6903 86.5465V86.5009C66.6448 86.5009 66.5992 86.4554 66.5081 86.4554C66.4626 86.4554 66.417 86.4554 66.3715 86.4098C66.0071 86.2732 65.8704 86.1365 65.7793 85.9998C65.7338 85.9543 65.7338 85.9087 65.6427 85.9087V85.8632L65.5515 85.7721H65.506C65.506 85.681 65.3238 85.5443 65.2327 85.4532L65.1416 85.3621H65.096C65.096 85.3621 65.0505 85.4077 64.9594 85.4988C64.8227 85.6354 64.6861 85.7721 64.6405 85.8176V85.8632H64.595C64.5494 85.8632 64.5494 85.8632 64.5494 85.9087L64.5039 85.9543C64.2306 86.2732 63.9117 86.4098 63.5928 86.5009C63.365 86.5465 63.1373 86.5009 62.9095 86.4554C62.6818 86.4098 62.4996 86.2731 62.3174 86.1365C62.0896 85.9543 61.9529 85.7265 61.8618 85.4532C61.7252 85.4988 61.5885 85.5443 61.4063 85.5443C61.3152 85.5443 60.8597 85.4988 60.8141 85.4988C60.5408 85.3621 60.2675 85.2255 60.0853 84.9977C59.9487 84.8155 59.812 84.5422 59.7665 84.2233C59.5842 84.2689 59.402 84.2689 59.2198 84.3144L59.1743 84.2689C59.1287 84.2233 59.0831 84.2233 58.992 84.1778C58.8098 84.1322 58.5821 84.0411 58.3543 83.8133C58.2632 83.7222 58.1721 83.54 58.081 83.3578C58.0355 83.2212 57.9899 83.0845 57.9899 82.9479C57.6255 82.9934 57.5344 82.9934 57.1244 82.9023H57.0789C56.8056 82.7657 56.6234 82.7201 56.5323 82.5835C56.3956 82.4468 56.3045 82.3101 56.1678 82.0368C56.1678 81.9913 56.1678 81.9913 56.1223 81.9457C56.0767 81.6269 56.0312 81.4902 56.1223 81.1258C56.2134 80.8525 56.3045 80.7158 56.3956 80.5792L56.4867 80.397L56.6234 80.3059L56.8511 80.1236V80.0781C56.76 80.0325 56.6234 79.8959 56.4867 79.8048C56.3045 79.6681 56.1679 79.5315 56.0312 79.4404L55.8034 79.3493L55.8945 79.3037L55.7579 79.2126C55.6668 79.1215 55.6212 79.076 55.5301 79.076L55.4846 79.0304V78.9848L55.439 78.9393C55.3934 78.9393 55.3935 78.9393 55.3479 78.8937L55.3023 78.8482L55.2113 78.7571L55.1201 78.666L54.9835 78.6204L54.9379 78.5749C54.9379 78.4838 54.7102 78.3471 54.528 78.2105L54.3913 78.1194C54.3002 78.1649 54.2091 78.1649 54.118 78.2105C53.7991 78.256 53.4347 78.2105 53.1159 77.9827L51.1116 76.5706C50.7927 76.3428 50.6105 76.024 50.5649 75.7051C50.4738 75.3407 50.565 74.9763 50.7927 74.6574L54.0725 69.9656C54.3002 69.6467 54.6191 69.4645 54.9379 69.4189C55.3023 69.3278 55.6668 69.4189 55.9856 69.6467ZM58.0355 73.2909L55.0746 77.5727C55.1657 77.6638 55.3479 77.846 55.4846 77.9372L55.5301 77.9827C55.6668 78.0283 55.7123 78.1194 55.8034 78.1649C55.8945 78.256 55.9856 78.3471 56.0767 78.3927C56.4411 78.666 56.8511 78.9848 57.17 79.2582C57.2611 79.3037 57.3522 79.4404 57.4889 79.4859C57.5344 79.3948 57.58 79.3948 57.6255 79.3037C57.6711 79.2582 57.7166 79.2582 57.8077 79.2126C57.8533 79.1671 57.8988 79.1215 57.9444 79.1215C58.0355 79.076 58.081 79.0304 58.1721 79.0304C58.2177 79.0304 58.3088 78.9848 58.3999 78.9848C58.7643 78.9393 58.9465 78.9848 59.2198 79.1215C59.3109 79.1215 59.3109 79.1215 59.402 79.1671C59.5387 79.3037 59.6298 79.3493 59.7209 79.4404C59.7664 79.4859 59.812 79.577 59.9031 79.7592L59.9942 79.8959L60.0398 80.1692L60.1308 80.1236C60.2675 79.987 60.4042 79.8503 60.5864 79.7592C60.6319 79.7592 60.6319 79.7592 60.6775 79.7137L60.8597 79.6226L61.4063 79.577C61.5885 79.6681 61.8163 79.7137 61.9985 79.8048V79.8503H62.0896L62.5451 80.397V80.4881L62.6362 80.8069H62.7729C62.864 80.8069 63.0006 80.7614 63.1829 80.7614C63.3195 80.7614 63.4106 80.8069 63.5472 80.8069C63.5928 80.8525 63.6384 80.898 63.6839 80.898C63.8206 80.9436 64.0028 81.0347 64.185 81.2169C64.2306 81.2624 64.2305 81.2624 64.2305 81.308C64.2761 81.3535 64.2761 81.3535 64.3217 81.3991L64.3672 81.4447C64.5949 82.0368 64.5949 82.0824 64.5494 82.2646C64.5494 82.3101 64.5494 82.3557 64.5494 82.4923C64.686 82.5379 64.8227 82.5835 64.9594 82.629C65.096 82.6746 65.2327 82.7657 65.3238 82.8568C65.4605 82.9479 65.5515 83.039 65.5971 83.1756C65.6882 83.2667 65.7337 83.4489 65.8248 83.5856C65.8248 83.6311 65.8248 83.6767 65.8248 83.7222L65.8704 83.7678V83.8133C65.8704 83.9044 65.8704 83.95 65.8248 84.0411C65.8248 84.1322 65.8249 84.2233 65.7793 84.36C65.7793 84.4511 65.7337 84.5422 65.6882 84.5877L65.6427 84.7244H65.7338V84.7699C65.8249 84.9066 65.916 84.9977 66.0526 85.1344L66.1893 85.2255L66.2804 85.3166C66.417 85.4532 66.5537 85.5899 66.7359 85.6354C66.827 85.681 66.9181 85.681 67.0092 85.681C67.0548 85.6354 67.1458 85.6354 67.1458 85.5899H67.1914V85.5443C67.2825 85.5443 67.3281 85.4988 67.3736 85.4532C67.4192 85.4077 67.4647 85.3166 67.5103 85.2255C67.5558 85.0888 67.5558 84.9522 67.5558 84.861C67.5558 84.8155 67.5103 84.7244 67.4647 84.6788L67.4192 84.6333C67.3281 84.5422 67.2825 84.5422 67.237 84.4511C67.1914 84.4055 67.1914 84.4055 67.1458 84.36C67.1458 84.3144 67.1003 84.2689 67.1003 84.2689H67.0548L67.0092 84.2233C66.9636 84.1778 66.9637 84.1322 66.9181 84.1322L66.8725 84.0867C66.827 84.0411 66.827 83.9956 66.7815 83.95L66.6903 83.9045V83.8589L66.6448 83.8133C66.6448 83.7678 66.5992 83.7678 66.5992 83.7678L66.5081 83.7222V83.6767C66.4626 83.6311 66.4626 83.6311 66.417 83.5856L66.3715 83.54L66.3259 83.4489C66.3259 83.4034 66.3259 83.4034 66.2804 83.3578L66.2348 83.3123V83.2667C66.2804 83.1301 66.2804 82.9934 66.3715 82.9023C66.4626 82.8112 66.5993 82.8112 66.7815 82.8112H66.827C67.0547 82.9934 67.1003 83.039 67.1458 83.0845C67.1458 83.1301 67.1914 83.1756 67.2825 83.2667C67.3281 83.3123 67.3281 83.3578 67.3736 83.3578C67.4192 83.4034 67.4647 83.4489 67.5103 83.4945L68.1936 84.2233C68.2391 84.3144 68.2847 84.36 68.3302 84.4055C68.4669 84.5422 68.558 84.5877 68.6491 84.6333L68.6946 84.6788C68.7402 84.6788 68.8313 84.7244 68.9224 84.7244C69.059 84.7244 69.1957 84.6788 69.2868 84.6333L69.3324 84.5877C69.5146 84.4966 69.5601 84.3144 69.6057 84.1322C69.6057 83.95 69.5601 83.7222 69.5146 83.5856L69.469 83.4945C69.4235 83.4489 69.2868 83.3123 69.1957 83.1756C69.1046 83.1301 69.0591 83.0845 69.0591 83.0845H69.0135L68.9679 82.9934C68.9679 82.9479 68.9679 82.9479 68.9224 82.9023L68.8313 82.8568L68.7402 82.8112V82.7657C68.7402 82.7201 68.7402 82.6745 68.6946 82.6745C68.6491 82.629 68.6035 82.5834 68.558 82.5379C68.5124 82.4923 68.5124 82.4923 68.4669 82.4468L68.4213 82.4012L68.3758 82.3101C68.3302 82.2646 68.3302 82.2646 68.2846 82.219H68.2391V82.1735C68.2391 82.1279 68.1936 82.1279 68.1936 82.1279C68.1936 82.0824 68.148 82.0824 68.1024 82.0368C68.0113 81.9457 67.9658 81.8546 67.9658 81.7635C67.9658 81.6724 68.0114 81.5813 68.0569 81.4902V81.4447L68.1024 81.3991C68.148 81.3991 68.1936 81.3535 68.2391 81.308H68.2846C68.6035 81.2624 68.6491 81.3535 68.7857 81.5357C68.8768 81.6269 68.9224 81.6724 68.9679 81.718C69.0135 81.7635 69.0135 81.7635 69.1046 81.8091C69.1501 81.9002 69.1957 81.9457 69.1957 81.9913C69.2413 82.0368 69.2868 82.0824 69.3324 82.1735C69.469 82.219 69.6512 82.4468 69.879 82.6745C70.1523 82.9934 70.4256 83.3123 70.5167 83.3578C70.5623 83.4034 70.6078 83.4034 70.6078 83.4034C70.6534 83.4489 70.6989 83.4489 70.7445 83.4489C70.8811 83.4489 70.8811 83.4489 70.9267 83.4034H70.9722C71.0633 83.4034 71.1544 83.3578 71.2 83.3123C71.2455 83.2212 71.2911 83.1756 71.2911 83.1301V83.0845L71.3367 83.039C71.3822 82.9934 71.4278 82.9934 71.4733 82.9934C71.4733 82.9934 71.3822 82.9934 71.3822 82.9479V82.9023V82.8568C71.3822 82.7657 71.3822 82.7201 71.3822 82.7201C71.3366 82.6745 71.3366 82.629 71.2911 82.629V82.5835V82.5379C71.2455 82.4468 71.1089 82.3101 71.0178 82.219C70.9722 82.1735 70.8811 82.1279 70.8811 82.0368L69.9245 80.9891C69.879 80.9436 69.8334 80.898 69.7879 80.8525C69.6512 80.7158 69.5146 80.5792 69.469 80.3059V80.2603C69.5146 80.1692 69.5601 80.0781 69.6057 80.0325C69.6968 79.987 69.7423 79.9414 69.879 79.9414H69.9245C70.1523 79.9414 70.1979 80.0325 70.3345 80.2147C70.3801 80.2603 70.4711 80.3514 70.5622 80.4425C70.6078 80.4881 70.6533 80.5336 70.6989 80.5792L70.7445 80.6247L71.7922 81.8091C71.9744 81.9913 72.2021 82.219 72.6576 82.1735C72.7032 82.1735 72.8399 82.1279 72.931 82.0824C72.9765 82.0824 73.0221 82.0368 73.0221 82.0368V81.9913L73.0676 81.9457C73.1587 81.9457 73.1587 81.9002 73.2043 81.8546C73.2498 81.8091 73.2498 81.718 73.2498 81.6269C73.2954 81.5358 73.2954 81.3991 73.2498 81.308C73.2043 81.2169 73.1587 81.0802 73.1132 81.0347C73.0221 80.898 72.931 80.8069 72.8398 80.7158L72.6576 80.4881L72.2477 79.9414C72.111 79.8048 71.9744 79.6226 71.8377 79.4404L71.5188 78.9848H71.4733H71.4277L71.3822 78.8937C71.3366 78.7571 71.2455 78.6204 71.1089 78.4838C70.6989 77.9827 69.9701 77.2083 69.6968 76.7528C69.6968 76.7073 69.6057 76.6161 69.5146 76.4795C69.469 76.4339 69.4235 76.3428 69.3779 76.3428C69.3324 76.2973 69.1046 76.2973 68.9224 76.2973H68.7402H68.3758C67.9203 76.2973 67.3281 76.2517 67.1914 76.2973L67.1458 76.3428V76.3884C67.0547 76.4795 66.827 76.7528 66.7359 76.7984C66.6448 76.8439 66.5992 76.8895 66.5537 76.9806L66.5081 77.0261L66.3259 77.2083C66.2804 77.2083 66.2804 77.2539 66.2804 77.2994L66.2348 77.345H66.1893C66.1437 77.3905 66.0982 77.4361 66.0071 77.4816C65.9615 77.5272 65.9615 77.5272 65.916 77.5727V77.6183C65.7793 77.6638 65.3238 78.1194 65.096 78.256C64.9138 78.3927 64.6861 78.5749 64.6405 78.6204V78.666H64.595C64.5494 78.666 64.4127 78.7115 64.2761 78.8026C64.2305 78.8482 64.185 78.8482 64.1394 78.8937C64.0028 78.9393 63.8661 78.9848 63.7295 79.0304C63.5928 79.0759 63.5928 79.076 63.4562 79.1215C63.3195 79.1215 63.2284 79.1215 63.1829 79.1671H63.1373C62.6362 79.1671 62.5451 79.1671 62.1351 79.0304C62.044 79.0304 61.9529 78.9848 61.8618 78.9393C61.7707 78.8937 61.7252 78.8482 61.6341 78.8026C61.543 78.7571 61.4974 78.7115 61.4519 78.666C61.4063 78.6204 61.3608 78.5749 61.3152 78.5293C61.2241 78.4838 61.1785 78.3927 61.133 78.3927H61.0875L60.8597 77.9372V77.8916C60.8597 77.6183 60.9508 77.5272 61.0419 77.4361C61.0875 77.3905 61.0874 77.345 61.133 77.345V77.2994L61.1786 77.2083H61.2241C61.2697 77.1628 61.3152 77.1628 61.3152 77.1172L61.3608 77.0261C61.4063 76.9806 61.4519 76.9806 61.4519 76.935C61.4974 76.935 61.4974 76.8895 61.543 76.8439C62.2718 76.0695 63.0462 74.9763 63.775 74.2474C63.8206 74.2019 63.8206 74.1563 63.8661 74.1563C63.8661 74.1108 63.8661 74.1108 63.9117 74.0197L63.9572 73.9741C64.0028 73.9741 64.0028 73.9741 64.0028 73.9741C64.0028 73.9286 64.0028 73.9286 64.0483 73.883V73.8375H64.0939C64.1394 73.7919 64.185 73.7464 64.2761 73.6553C64.3216 73.6097 64.3672 73.5186 64.4127 73.4731C64.3672 73.4731 64.2761 73.4275 64.185 73.382C63.9572 73.2909 63.6839 73.2453 63.5472 73.1997H63.4562C63.365 73.1542 63.2739 73.1542 63.1373 73.1542H63.0917C63.0462 73.1087 62.9095 73.1087 62.7729 73.1087H62.7273C62.6362 73.1087 62.5451 73.1087 62.4996 73.1542C62.454 73.1542 62.454 73.1542 62.4084 73.1997H62.3629C62.3174 73.1997 62.2263 73.1997 62.1807 73.1997C62.0896 73.2453 62.044 73.2453 61.9529 73.2909C61.8618 73.3364 61.7252 73.382 61.6341 73.4275C61.5885 73.4275 61.4974 73.4731 61.4063 73.5186C61.3608 73.5186 61.2697 73.5186 61.2241 73.5642C61.0875 73.5642 60.9052 73.6097 60.8597 73.6553V73.7008H60.8141C60.6775 73.7008 60.5408 73.7008 60.4497 73.7008C60.3586 73.7464 60.2675 73.7464 60.1308 73.7464C60.0397 73.7464 59.9031 73.7464 59.812 73.7464C59.6753 73.7008 59.5387 73.7008 59.4476 73.7464H59.402L59.3565 73.7008C59.3109 73.6553 59.1287 73.6553 58.992 73.6097C58.9009 73.6097 58.8554 73.5642 58.8099 73.5642C58.6732 73.5642 58.5821 73.5186 58.491 73.4731C58.3999 73.4275 58.3088 73.382 58.2177 73.382C58.2177 73.382 58.1266 73.3364 58.0355 73.2909ZM75.0264 70.5577L73.0221 71.9698C72.9765 72.0154 72.931 72.1065 72.8854 72.1521C72.8854 72.2432 72.8854 72.3343 72.931 72.4254L75.9374 76.7072L76.2562 77.1172C76.3018 77.2083 76.3929 77.2539 76.4385 77.2539C76.5296 77.2994 76.6207 77.2539 76.7118 77.2083L78.7161 75.8418C78.7616 75.7507 78.8072 75.7051 78.8527 75.614C78.8527 75.5229 78.8527 75.4318 78.7616 75.3407L75.4819 70.6488C75.4363 70.5577 75.3452 70.5122 75.2541 70.5122C75.163 70.5122 75.0719 70.5122 75.0264 70.5577ZM75.2086 77.5272C74.4342 76.5706 72.9765 74.293 72.2477 73.2453H72.2021C72.1566 73.2909 72.111 73.2909 72.111 73.3364L72.0655 73.382H72.0199C71.9744 73.382 71.8377 73.4275 71.7466 73.4731C71.7011 73.4731 71.6099 73.5186 71.5644 73.5186C71.4733 73.5642 71.3822 73.5642 71.2911 73.6097C71.1089 73.6553 71.0178 73.6553 70.8356 73.7008C70.7445 73.7008 70.6078 73.7008 70.5622 73.7464H69.879C69.7879 73.7008 69.6057 73.6553 69.4234 73.6553C69.059 73.6097 68.6491 73.4275 68.2391 73.3364V73.2909C68.1936 73.2453 68.1025 73.2453 68.0113 73.1997C67.9202 73.1542 67.8292 73.1542 67.738 73.1542L67.237 73.1087H67.1458C67.0092 73.1087 66.827 73.1087 66.7815 73.1542L66.7359 73.1997H66.6903C66.6448 73.1997 66.5537 73.1997 66.4626 73.1997C66.3715 73.1997 66.3259 73.2453 66.2804 73.2909H66.2348C66.1437 73.2909 65.9615 73.382 65.7793 73.4275C65.5971 73.5186 65.4604 73.6097 65.3693 73.6553L63.5928 75.7507V75.7962L63.5472 75.8418H63.5017C63.4106 75.9329 63.365 76.024 63.2739 76.1151C63.0006 76.4795 62.6362 76.8895 62.3174 77.2539C62.2718 77.2994 62.2262 77.345 62.1351 77.4361C62.044 77.5727 61.9074 77.7094 61.8163 77.846C61.8618 77.8916 61.9074 77.9827 61.9985 78.0283H62.0441C62.0441 78.0738 62.1352 78.1194 62.2263 78.1649C62.2718 78.2105 62.4085 78.256 62.454 78.256H62.4996C62.5907 78.3016 62.7273 78.3471 62.9095 78.3471C63.0462 78.3471 63.1828 78.3016 63.3195 78.256C63.3195 78.256 63.365 78.256 63.4106 78.256L63.4562 78.2105L63.5017 78.1649H63.5472C63.6839 78.1649 63.8661 78.0738 64.0028 77.9827L64.3672 77.7549C64.4583 77.7094 64.5039 77.6638 64.5039 77.6638L64.5494 77.6183V77.5727C64.7316 77.5272 64.8227 77.4361 64.9138 77.345C64.9138 77.345 64.9594 77.2994 65.0505 77.2539L65.1871 77.1172C65.3238 76.9806 65.4149 76.935 65.4604 76.8439C65.5971 76.7528 65.7338 76.6617 65.9615 76.3428C66.1893 76.1606 66.3715 75.9329 66.5992 75.7051C66.6448 75.6596 66.6903 75.614 66.6903 75.614C66.7359 75.5685 66.7814 75.5229 66.827 75.4773L66.8725 75.4318H66.9181C67.1459 75.4774 67.6014 75.4774 68.1024 75.4318C68.8313 75.4318 69.6968 75.4318 69.8334 75.5685C70.0612 75.7051 70.8356 76.7528 71.1089 77.1628H71.1544L71.2 77.2083C71.2455 77.2994 71.2455 77.345 71.2911 77.3905L71.3367 77.4361L71.4733 77.6183H71.5188L71.5644 77.6638V77.7094H71.61V77.7549C71.7011 77.8916 71.9744 78.2105 72.1566 78.4382L72.2932 78.6204L72.3843 78.7571C72.521 78.9393 72.7488 79.2582 72.8854 79.3948C72.931 79.3493 72.9765 79.3493 73.0221 79.3037C73.6142 78.7571 74.4797 78.1194 75.1174 77.6183L75.163 77.5272H75.2086ZM57.3977 71.8787L55.3935 70.4666C55.3024 70.4211 55.2112 70.4211 55.1201 70.4211C55.029 70.4211 54.9835 70.4666 54.9379 70.5577L51.6126 75.2496C51.5671 75.3407 51.5671 75.4318 51.5671 75.5229C51.6126 75.614 51.6582 75.7051 51.7037 75.7507L53.708 77.1172C53.7536 77.1628 53.8447 77.2083 53.9358 77.1628L54.2091 76.8439L54.2547 76.7528V76.7072L54.3002 76.6617C54.3457 76.6617 54.3458 76.6162 54.3913 76.5706L55.439 75.1129V75.0674L55.4846 75.0218C55.5757 74.9763 55.5757 74.9763 55.6212 74.8852L55.6668 74.8396L55.7123 74.7485C55.7579 74.703 55.8034 74.6574 55.849 74.5663L57.17 72.7442L57.4433 72.3343C57.4888 72.2432 57.5344 72.1521 57.4889 72.1065C57.4889 72.0154 57.4433 71.9243 57.3977 71.8787ZM60.9963 83.2667C60.9508 83.3123 60.9508 83.3578 60.9053 83.4034L60.8597 83.4489C60.7686 83.4945 60.6775 83.6311 60.6319 83.8133C60.6319 83.9044 60.6319 83.9956 60.6319 84.0867C60.6319 84.1778 60.6775 84.2689 60.6775 84.36C60.7686 84.4966 60.9052 84.6333 61.133 84.6788C61.5885 84.7699 61.8618 84.4966 62.1807 84.1322C62.2718 84.0411 62.3629 83.95 62.4084 83.8589L63.5928 82.7201C63.6384 82.629 63.6839 82.4923 63.7295 82.3557C63.7295 82.219 63.7295 82.0824 63.6384 81.9457C63.5928 81.8546 63.5472 81.7635 63.4106 81.718C63.3195 81.6269 63.1828 81.6269 63.0006 81.5813C62.9095 81.6269 62.8184 81.6269 62.7273 81.6724C62.6362 81.6724 62.5907 81.718 62.5451 81.7635V81.8091H62.454C62.4085 81.8546 62.3174 81.9457 62.3174 81.9913C62.2718 81.9913 62.2718 82.0368 62.2718 82.0824H62.2263V82.1279C62.1352 82.1279 62.1351 82.1279 62.0896 82.1735L61.9985 82.3101C61.9074 82.4468 61.7707 82.5834 61.6341 82.6745L61.4063 82.9023H61.3608C61.3152 82.9934 61.2241 83.0845 61.133 83.1756C61.0874 83.1756 61.0419 83.2212 60.9963 83.2667ZM59.1287 83.3578C59.1743 83.3578 59.1743 83.4034 59.2654 83.4034C59.6298 83.4945 59.7665 83.3123 59.9487 83.1301L61.3152 81.718C61.3608 81.6724 61.4063 81.6269 61.4519 81.5813C61.6341 81.4446 61.8163 81.308 61.8163 81.0347C61.7707 80.8525 61.7252 80.7158 61.6341 80.6247C61.543 80.5336 61.4974 80.4881 61.4063 80.4881C61.3152 80.4425 61.2697 80.4425 61.1786 80.4425C61.133 80.4425 61.0875 80.4881 61.0419 80.4881L60.9963 80.5336H60.9508L60.9053 80.5792C60.7686 80.6247 60.7686 80.6703 60.723 80.7158L60.5864 80.8525C60.5408 80.898 60.4953 80.9436 60.4497 80.9891C60.4497 81.0347 60.3586 81.0802 60.3586 81.1258C60.2675 81.1258 60.222 81.1713 60.1764 81.2624L59.9487 81.4447C59.9487 81.4902 59.9487 81.4902 59.9031 81.5357V81.5813L59.812 81.6269L59.7665 81.6724C59.7209 81.718 59.7209 81.718 59.7209 81.7635H59.6753C59.6298 81.8091 59.5842 81.8091 59.5842 81.8546C59.5842 81.8546 59.5387 81.9002 59.5387 81.9457L59.4931 81.9913H59.4476C59.4476 81.9913 59.402 81.9913 59.402 82.0368C59.3565 82.0824 59.3565 82.0824 59.3565 82.1279L59.3109 82.1735L59.2198 82.219C59.1743 82.2646 59.0832 82.3101 59.0376 82.4012C58.9921 82.4468 58.9465 82.4923 58.901 82.629L58.8554 82.6745C58.8554 82.6745 58.8099 82.7657 58.8099 82.8568C58.8099 82.9479 58.8554 82.9934 58.8554 83.039H58.901V83.0845C58.9465 83.1756 58.9465 83.2212 58.992 83.2667H59.0376C59.0832 83.3123 59.1287 83.3578 59.1287 83.3578ZM57.8077 82.1279C57.9444 82.1279 58.081 82.0824 58.1266 82.0368V81.9913H58.1721C58.3543 81.9002 58.491 81.7635 58.6277 81.6269L58.7187 81.4902L58.8554 81.3535C58.9921 81.2169 59.2198 81.0347 59.2654 80.9436V80.898C59.2654 80.4881 59.2654 80.1692 59.0376 79.9414C58.5365 79.5315 58.081 80.0325 57.6711 80.4881L57.4433 80.7158L57.3066 80.8069C57.1244 80.9891 56.9422 81.1713 56.8967 81.4902C56.9422 81.6724 56.9878 81.7635 57.0333 81.9002C57.1244 81.9913 57.2155 82.0368 57.3522 82.0824C57.4433 82.1279 57.6255 82.1279 57.8077 82.1279ZM71.4733 77.6183C71.4733 77.6183 71.4278 77.6183 71.4733 77.6183V77.6183Z" fill="#EF7F1A"/>
</svg>
