<svg width="89" height="81" viewBox="0 0 89 81" fill="none" xmlns="http://www.w3.org/2000/svg">
<path d="M79.5594 0.826416H9.40945C4.85592 0.826416 1.16455 4.8237 1.16455 9.75459V70.8853C1.16455 75.8162 4.85592 79.8135 9.40945 79.8135H79.5594C84.1129 79.8135 87.8043 75.8162 87.8043 70.8853V9.75459C87.8043 4.8237 84.1129 0.826416 79.5594 0.826416Z" stroke="#EF7F1A" stroke-width="1.37339" stroke-miterlimit="22.9256"/>
<path fill-rule="evenodd" clip-rule="evenodd" d="M17.9732 58.0397H21.6629L21.8451 59.0418C20.7063 58.6774 19.2031 58.9052 17.9732 58.9052V58.0397ZM47.2176 24.1946L47.172 24.1035C47.4453 23.0102 47.5364 22.4636 47.9919 21.3704C48.8119 19.1839 51.0439 16.7241 53.276 15.9041L52.0005 24.3768C52.456 24.559 53.0027 24.6045 53.4126 24.7868C53.777 24.0579 55.2347 13.3532 55.5536 12.761C56.0091 11.8956 56.6013 11.8956 57.8312 11.8956C58.2867 11.8956 58.7878 11.85 59.1977 11.9867C59.881 12.1689 59.471 12.0322 59.6532 12.26C60.6098 13.171 62.0675 23.5113 62.7508 24.8779C63.1607 24.6501 63.7074 24.6501 64.1629 24.4679C64.0718 23.2835 62.6141 17.0885 62.523 15.9041C62.7508 15.9952 63.6618 16.5419 63.7074 16.5874C63.7529 16.5874 63.7985 16.5874 63.7985 16.633C63.844 16.633 63.844 16.6785 63.8896 16.6785C63.9351 16.6785 63.9351 16.7241 63.9807 16.7241C63.9807 16.7696 64.0262 16.7696 64.0718 16.8152C65.2561 17.7262 65.7572 18.2728 66.6682 19.5938C67.7615 21.1882 67.9892 22.0081 68.3992 23.8302C68.4903 24.3768 68.3992 24.6957 68.627 25.2878C69.6291 25.2878 70.9501 25.3789 71.1779 26.5633C71.4056 28.0209 70.3124 27.9754 69.4925 27.9754H46.2154C45.9421 27.9754 45.5777 27.9754 45.3499 27.9298C44.4845 27.8387 44.2111 27.3377 44.4389 26.4266C44.53 25.9711 45.0311 25.5156 45.5321 25.47L46.9898 25.2423C47.3087 24.9234 47.2176 24.8779 47.2176 24.1946ZM22.3462 60.4539H23.2117C23.3939 60.0895 23.3484 60.2262 23.3484 59.6795V56.4909H22.2096V53.2112C23.4395 53.1201 23.8039 52.7556 24.1683 52.7556C24.2594 52.619 24.4416 52.5279 24.6238 52.3457C24.8516 52.1635 25.1704 51.8446 25.3071 51.5257C25.3982 51.3435 25.4437 51.1613 25.4893 51.0247V49.5215C28.268 50.888 31.6388 51.0247 34.4175 49.3848C34.4175 50.2047 34.2353 51.3435 34.7819 51.9813C34.9641 52.209 35.2374 52.4368 35.4196 52.5734C35.4652 52.619 35.4652 52.6645 35.5107 52.6645H35.5563C35.4196 53.1656 35.3741 52.9834 35.1008 53.4845C34.6452 54.3955 34.4175 55.5343 34.4175 56.6276C34.4175 58.4041 34.4175 60.1351 34.4175 61.866H22.2096L22.3462 60.4539ZM67.2149 55.3521H72.3622C72.3167 56.0809 72.2711 56.0809 72.4533 56.7642C71.1779 56.3998 68.6725 56.6276 67.2149 56.6276V55.3521ZM43.209 55.3521H48.3108V56.6276H43.3912C43.1634 56.0809 43.209 55.9898 43.209 55.3521ZM19.2487 54.35V54.0766C19.5676 53.8944 20.2053 53.7578 20.6608 53.8033C20.6608 54.7144 20.5241 55.7621 20.7975 56.6276C20.0686 56.4453 19.932 56.4909 19.2487 56.4909V54.35ZM68.7636 49.977C69.3558 50.2503 70.1757 50.2503 70.7679 50.5236V53.8033H68.9003C68.4903 52.7556 68.7636 51.1158 68.7636 49.977ZM48.3108 49.6581C48.9485 49.3848 51.8183 48.7926 52.1372 48.3827C52.2738 48.1549 52.3194 47.6538 52.3194 47.5172V47.4716V47.4261V45.0118C53.6404 45.2851 54.187 46.2417 58.1045 46.2873C59.471 46.2873 60.1999 46.1051 61.202 45.7862C61.7031 45.604 61.9764 45.5584 62.4319 45.3307C62.933 45.0574 63.2518 44.8296 63.6618 44.8296V47.1072C63.6618 47.1983 63.6618 47.2894 63.7074 47.335C63.7074 47.6994 63.7985 47.9727 63.9807 48.2004C64.1173 48.4738 64.3906 48.656 64.5728 48.7471C64.664 48.7926 64.7095 48.8382 64.7551 48.8837C65.1195 49.0204 65.7116 49.157 65.8483 49.2026C66.3494 49.3392 66.7593 49.4303 67.2149 49.5215V53.8033C65.3017 53.8033 65.6205 53.1201 65.6205 57.7664C65.6205 58.4952 66.4405 58.0397 67.2149 58.313L67.3515 60.3173H48.3108V58.1763H49.7229C49.7229 52.8923 50.224 53.8033 48.3108 53.8033V49.6581ZM44.7578 50.5236C45.5777 50.478 45.9877 50.1136 46.7621 50.1136C46.7621 51.3435 46.5798 52.7556 46.8987 53.94C46.1243 53.7122 45.5777 53.8033 44.7578 53.8033V50.5236ZM22.0729 41.1399L21.9363 37.0402H37.5606C37.5606 41.1854 38.1072 44.1463 35.1463 47.0161C32.8232 49.2937 28.3591 49.6581 25.9448 48.0638C24.4872 47.1072 25.3526 47.6994 24.305 46.7428C24.1227 46.5606 24.0772 46.4695 23.895 46.2873L22.7106 44.4652C22.3007 43.4175 22.0729 42.5976 22.0729 41.1399ZM48.3108 36.0381V29.7975C54.6881 29.7975 61.0198 29.7975 67.3515 29.7975C66.7138 32.5306 69.7658 41.3677 60.6098 44.3741C59.3344 44.784 57.2845 44.8296 55.8724 44.6018C55.8269 44.6018 55.6447 44.5563 55.5991 44.5563C55.5536 44.5563 55.508 44.5563 55.508 44.5107C54.3692 44.283 53.4126 43.7364 52.5016 43.2353C51.6361 42.7342 51.955 42.7342 51.4083 42.3698C50.7251 41.8687 50.9984 42.0509 50.4973 41.4132C50.3606 41.2766 50.3151 41.231 50.1784 41.0488C49.1763 39.8189 48.3108 37.7691 48.3108 36.0381ZM34.0075 25.8345C34.9185 26.2444 35.5107 26.8821 36.2396 27.5654C37.6972 28.932 38.5171 31.2096 38.5171 33.305C40.6581 33.305 40.6581 33.4416 40.6581 34.8993C39.5648 35.6737 36.6495 35.3548 35.1008 35.3548C32.8687 35.3548 25.4893 35.4459 21.8907 35.4004H19.7953C19.2487 35.4004 18.8387 34.9448 18.8387 34.4438C18.8387 34.1705 18.9298 33.9427 19.0665 33.806V33.7605H19.112C19.2487 33.5783 19.522 33.4872 19.7498 33.4872L19.7953 33.4416C19.9775 33.3505 20.2053 33.2594 20.433 33.1228C20.6608 32.9861 20.7975 32.8039 20.9341 32.6217C21.0252 32.4395 21.1163 32.2573 21.2074 32.0751C21.253 31.9384 21.2985 31.8018 21.3896 31.574C21.3896 31.3918 21.4352 31.2551 21.4807 31.0729C21.7996 29.9797 22.1185 29.2053 22.8017 28.2943C23.9861 26.7455 24.305 26.6544 25.7626 25.6978C25.7171 26.6999 24.7149 31.6195 24.7149 32.6217C25.2615 32.6672 25.5804 32.8494 26.127 32.895L27.6758 24.5134C28.3135 22.0081 28.0858 22.2814 31.0011 22.2814C31.4566 22.9191 31.5477 22.6458 31.7755 23.648C32.0488 24.6957 33.5064 32.5761 33.552 33.2139C34.1442 33.1683 34.4175 32.9405 35.1008 32.9405C34.9186 32.1662 34.0075 26.6999 34.0075 25.8345ZM53.7315 14.0365C50.7251 14.7653 47.9008 17.7718 46.6254 20.596C46.3976 21.0515 46.2154 21.7348 46.0332 22.2814C45.851 22.828 45.7599 23.5113 45.6233 24.1035C43.1634 24.1035 41.9791 27.1555 43.7101 28.7953C44.5756 29.6153 45.3499 29.5242 46.7621 29.5242C46.7621 34.626 46.1243 38.9079 49.4952 42.6887C49.7685 42.962 50.3151 43.5541 50.7251 43.6908V47.3805L46.3976 48.5649C46.3065 48.5649 45.7599 48.7015 45.4866 48.7926C43.0723 49.3848 40.6125 49.977 38.3349 50.7058C37.6972 50.9336 37.3784 51.2069 36.8317 51.5257C36.5584 51.3891 36.3307 51.298 35.9662 51.2524V48.246C36.7406 47.7449 37.6517 46.515 38.1072 45.5584C39.4282 42.8253 39.1093 39.8644 39.1093 36.7669C40.0204 36.7669 40.8859 36.7669 41.5691 36.1292C42.9812 34.7626 42.0702 32.1206 39.9293 32.0751C39.9293 30.6174 39.246 29.1597 38.5171 28.0209L37.5606 26.6544C37.1961 26.1533 36.6495 25.7889 36.1485 25.3789C35.5563 24.8323 34.7819 24.4679 34.0531 24.1035C34.0075 24.1035 33.962 24.0579 33.9164 24.0579C32.5498 23.3291 33.4609 20.7326 30.3178 20.7326C28.8601 20.7326 28.2224 20.6415 27.4025 21.3704C26.7648 21.9625 26.3548 22.7369 26.3092 23.8302C24.7149 24.1946 22.8928 25.7433 21.9818 26.8366C20.7975 28.2487 20.2508 29.7975 19.7953 31.5284C19.7042 31.984 19.7042 31.9384 19.2942 32.1206C18.201 32.485 17.3811 33.1228 17.3811 34.4893C17.3811 34.9904 17.4722 35.1726 17.6544 35.4915C18.5199 37.0858 19.112 36.3569 20.5241 36.9036C20.5241 40.5022 20.1597 43.7364 22.1185 46.515L23.3939 48.0638C23.4395 48.1093 23.4395 48.1093 23.485 48.1549L23.895 48.5193V51.2524L19.7498 52.3001C18.8843 52.5734 18.5654 52.619 17.6088 52.8923C15.0124 53.53 11.7782 53.94 10.776 56.8553C10.1383 58.814 10.4116 77.217 10.4116 79.5857H12.0059V58.7685C12.0059 57.9941 12.1426 57.4019 12.507 56.8553C13.2358 55.671 14.3291 55.3065 15.6045 55.0332C16.2423 54.851 17.0622 54.4411 17.6544 54.6233V56.4909H16.3789C16.3789 60.545 15.8323 60.4539 17.791 60.4539C17.6088 61.0461 17.6544 61.2283 17.6544 61.866H15.8323V79.5857H17.3811V63.2781H19.2487V60.4539H20.6608V63.2781C22.6195 63.2781 33.4609 63.0504 34.4175 63.4603C34.4175 64.1892 34.4175 64.9636 34.4175 65.7379C34.4175 67.1501 34.3719 75.9416 34.9186 79.4491C35.1463 80.9978 35.4196 79.2669 35.9662 79.2669V56.4909C35.9662 52.4823 39.4282 51.8446 42.5713 51.1613L43.209 51.0702C43.209 52.0268 43.1179 53.0289 43.3457 53.94C42.6624 53.7578 42.5257 53.8033 41.7969 53.8033V58.1763H43.209C43.209 60.955 43.7556 60.3173 40.9314 60.3173V77.7181C40.9314 79.5402 40.977 79.2669 42.5257 79.2669V61.866C45.4866 61.866 44.7578 62.5038 44.7578 58.1763H46.7621C46.7621 60.3628 46.4432 61.866 47.172 61.866H68.3537C69.0825 61.866 68.7636 60.2262 68.7636 58.1763C69.4469 58.1763 70.1757 58.0852 70.7679 58.313V61.866H73.0455V78.9936C73.0455 79.4946 74.2754 79.2669 74.5943 79.2669V61.4561C74.5943 60.7728 74.5032 60.8639 74.4576 60.3173H72.3167V58.1763H73.7288V53.8033H72.4533C72.1345 53.029 72.3167 51.8446 72.3167 50.9336C73.3644 51.0247 75.0042 51.6624 76.0519 51.8902L77.2818 52.3912C78.785 53.1656 79.5594 54.7144 79.5594 56.4909V79.2669C80.015 79.2669 81.1082 79.5402 81.1082 78.8569V56.6276C81.1082 55.4432 80.926 54.6233 80.516 53.7122C80.4705 53.6667 80.4249 53.5756 80.4249 53.53C79.8327 52.3457 78.7395 51.3891 77.6007 50.7969C76.2341 50.1592 74.1843 49.8859 72.6811 49.4304L65.2106 47.3805V43.4175C65.6661 43.1897 65.6661 43.2808 66.0305 42.8253C66.1672 42.5976 66.1216 42.6431 66.3038 42.4154C69.5836 38.6801 68.9003 34.3071 68.9003 29.5242C69.9935 29.5242 71.1323 29.6608 71.9978 28.7953C72.9544 27.7932 73.0911 25.6067 71.8612 24.7412C71.5423 24.5134 71.3145 24.3768 71.0412 24.2857C70.5402 24.149 70.0391 24.2401 69.9024 23.6935C69.9024 23.5569 69.8569 23.3746 69.8569 23.1924L69.3558 21.4159C69.2191 21.0059 69.1736 20.9604 68.9914 20.6415C68.8547 20.2771 68.8547 20.1405 68.6725 19.8216L68.4903 19.5938C67.4882 17.9995 66.3949 16.6785 64.8917 15.5397L64.6184 15.3575C64.3451 15.1753 64.5729 15.312 64.254 15.1297C63.9807 14.9475 63.844 14.902 63.5707 14.7198C62.9785 14.3554 62.5686 14.1732 61.9308 14.0365C61.9308 12.7155 61.3842 11.7134 60.5187 10.9845C60.4732 10.9845 60.4276 10.939 60.4276 10.8934C59.3799 10.119 57.7856 10.3468 56.5557 10.3468C54.8703 10.3468 53.7315 12.5333 53.7315 14.0365Z" fill="#EF7F1A"/>
<path fill-rule="evenodd" clip-rule="evenodd" d="M26.6737 66.5123H34.8275V79.859H26.6737C25.3071 79.859 24.2139 78.7202 24.2139 77.3992V68.9266C24.2139 67.6056 25.3071 66.5123 26.6737 66.5123V66.5123Z" stroke="#EF7F1A" stroke-width="0.686695" stroke-miterlimit="22.9256" stroke-linecap="round" stroke-linejoin="round"/>
<path d="M64.2084 66.5123H51.8639C49.8764 66.5123 48.2653 67.5932 48.2653 68.9266V77.4448C48.2653 78.7781 49.8764 79.859 51.8639 79.859H64.2084C66.1959 79.859 67.807 78.7781 67.807 77.4448V68.9266C67.807 67.5932 66.1959 66.5123 64.2084 66.5123Z" stroke="#EF7F1A" stroke-width="0.686695" stroke-miterlimit="22.9256" stroke-linecap="round" stroke-linejoin="round"/>
<path d="M19.7042 32.895L38.9726 32.9406" stroke="#EF7F1A" stroke-width="0.686695" stroke-miterlimit="22.9256" stroke-linecap="round" stroke-linejoin="round"/>
<path d="M46.5343 24.7867L69.4925 24.8323" stroke="#EF7F1A" stroke-width="0.686695" stroke-miterlimit="22.9256"/>
<path d="M23.9861 52.3456C24.8516 53.4389 25.7171 54.5321 26.6736 55.3976C27.6758 56.2631 28.8146 56.8553 29.9078 56.9008C31.0466 56.9008 32.1854 56.3542 33.0965 55.5343C34.0075 54.7143 34.6908 53.6211 35.4196 52.5734" stroke="#EF7F1A" stroke-width="0.686695" stroke-miterlimit="22.9256" stroke-linecap="round" stroke-linejoin="round"/>
<path d="M51.545 48.1093C52.5016 49.4759 53.5037 50.8424 54.6425 51.8901C55.7813 52.9378 57.0568 53.7122 58.3322 53.7578C59.6532 53.7578 60.9287 53.0745 61.9764 52.0268C63.0241 51.0246 63.844 49.7036 64.6184 48.3826" stroke="#EF7F1A" stroke-width="0.686695" stroke-miterlimit="22.9256" stroke-linecap="round" stroke-linejoin="round"/>
</svg>
