<svg width="83" height="101" viewBox="0 0 83 101" fill="none" xmlns="http://www.w3.org/2000/svg">
<path fill-rule="evenodd" clip-rule="evenodd" d="M1.23633 7.19958H17.635V11.1626H48.9747V7.19958H65.92L66.0112 57.3523L63.3236 54.8925L60.3172 57.4889L56.8097 56.0313L54.8965 59.4932L51.0701 59.311L50.4779 63.2285L46.8338 64.3673L47.6082 68.2392L44.6017 70.5623L46.6516 73.9787L44.6017 77.1674L47.6993 79.6727L47.2893 81.3126H46.4694V81.3581H1.23633V81.3126V19.6353V7.19958Z" stroke="#EF7F1A" stroke-width="1.37339" stroke-miterlimit="22.9256" stroke-linecap="round" stroke-linejoin="round"/>
<path fill-rule="evenodd" clip-rule="evenodd" d="M17.6349 3.46429H27.1553V4.7853H38.5889V3.46429H48.9747V11.1626H17.6349V3.46429Z" stroke="#EF7F1A" stroke-width="1.37339" stroke-miterlimit="22.9256" stroke-linecap="round" stroke-linejoin="round"/>
<path d="M38.5889 1.05005H27.1553V4.78531H38.5889V1.05005Z" stroke="#EF7F1A" stroke-width="1.37339" stroke-miterlimit="22.9256" stroke-linecap="round" stroke-linejoin="round"/>
<path fill-rule="evenodd" clip-rule="evenodd" d="M17.1339 16.3555H58.4951V32.7086H58.5406V56.76L56.8097 56.0312L54.8965 59.4931L51.0701 59.3109L50.4779 63.2284L46.8338 64.3672L47.6081 68.2391L44.6017 70.5623L46.3782 73.4776H44.9206L44.8751 73.5687H9.07123V23.1883L17.1339 16.3555Z" stroke="#EF7F1A" stroke-width="1.37339" stroke-miterlimit="22.9256" stroke-linecap="round" stroke-linejoin="round"/>
<path fill-rule="evenodd" clip-rule="evenodd" d="M17.1339 16.3555L9.07123 23.2794L17.1339 23.1427V16.3555Z" stroke="#EF7F1A" stroke-width="0.686695" stroke-miterlimit="22.9256" stroke-linecap="round" stroke-linejoin="round"/>
<path d="M23.3746 30.2032H15.6763V37.856H23.3746V30.2032Z" stroke="#EF7F1A" stroke-width="0.686695" stroke-miterlimit="22.9256" stroke-linecap="round" stroke-linejoin="round"/>
<path d="M23.3746 44.6432H15.6763V52.296H23.3746V44.6432Z" stroke="#EF7F1A" stroke-width="0.686695" stroke-miterlimit="22.9256" stroke-linecap="round" stroke-linejoin="round"/>
<path d="M23.3746 58.5822H15.6763V66.2349H23.3746V58.5822Z" stroke="#EF7F1A" stroke-width="0.686695" stroke-miterlimit="22.9256" stroke-linecap="round" stroke-linejoin="round"/>
<path d="M28.2031 32.6631H52.71" stroke="#EF7F1A" stroke-width="0.686695" stroke-miterlimit="22.9256" stroke-linecap="round" stroke-linejoin="round"/>
<path d="M28.4308 35.3962H43.5085" stroke="#EF7F1A" stroke-width="0.686695" stroke-miterlimit="22.9256" stroke-linecap="round" stroke-linejoin="round"/>
<path d="M28.2031 47.103H52.71" stroke="#EF7F1A" stroke-width="0.686695" stroke-miterlimit="22.9256" stroke-linecap="round" stroke-linejoin="round"/>
<path d="M28.4308 49.8362H43.5085" stroke="#EF7F1A" stroke-width="0.686695" stroke-miterlimit="22.9256" stroke-linecap="round" stroke-linejoin="round"/>
<path d="M28.2031 61.2697H49.7036" stroke="#EF7F1A" stroke-width="0.686695" stroke-miterlimit="22.9256" stroke-linecap="round" stroke-linejoin="round"/>
<path d="M28.4308 64.0028H43.5085" stroke="#EF7F1A" stroke-width="0.686695" stroke-miterlimit="22.9256" stroke-linecap="round" stroke-linejoin="round"/>
<path d="M17.1795 33.6652L19.2749 35.9884L22.0991 31.6609" stroke="#EF7F1A" stroke-width="0.686695" stroke-miterlimit="22.9256" stroke-linecap="round" stroke-linejoin="round"/>
<path d="M17.1795 48.333L19.2749 50.6561L22.0991 46.2831" stroke="#EF7F1A" stroke-width="0.686695" stroke-miterlimit="22.9256" stroke-linecap="round" stroke-linejoin="round"/>
<path d="M17.1795 62.2263L19.2749 64.595L22.0991 60.222" stroke="#EF7F1A" stroke-width="0.686695" stroke-miterlimit="22.9256" stroke-linecap="round" stroke-linejoin="round"/>
<path fill-rule="evenodd" clip-rule="evenodd" d="M63.3235 60.1765L65.3278 62.0441L67.9699 60.9964L69.2453 63.4562L72.1151 63.3651L72.4795 66.0982L75.1671 67.0092L74.5749 69.6968L76.8069 71.5189L75.3037 73.7965L76.8069 76.2563L74.6205 77.9417L75.1671 80.7204L72.5251 81.5403L72.1151 84.3645L69.382 84.2279L67.9699 86.7332L65.4645 85.6855L63.3235 87.5532L61.2737 85.7311L58.6317 86.7332L57.3563 84.319L54.4865 84.3645L54.1676 81.6314L51.4345 80.7204L52.0267 78.0328L49.8402 76.2563L51.2978 73.9331L49.8402 71.5189L51.9812 69.8335L51.4345 67.0092L54.0765 66.1893L54.4865 63.3651L57.2651 63.5017L58.6317 60.9964L61.1826 62.0441L63.3235 60.1765Z" stroke="#EF7F1A" stroke-width="0.686695" stroke-miterlimit="22.9256" stroke-linecap="round" stroke-linejoin="round"/>
<path fill-rule="evenodd" clip-rule="evenodd" d="M56.9464 99.4422V91.6528L60.4994 90.2863L63.3236 92.8827L66.2845 90.2863L69.7919 91.7439L71.0219 89.5574V99.4422L63.9158 96.3447L56.9464 99.4422Z" stroke="#EF7F1A" stroke-width="1.37339" stroke-miterlimit="22.9256" stroke-linecap="round" stroke-linejoin="round"/>
<path fill-rule="evenodd" clip-rule="evenodd" d="M63.3235 54.8925L66.1022 57.4434L69.7919 56.0313L71.5684 59.4021L75.5315 59.311L75.987 63.0918L79.7678 64.3673L78.9479 68.1025L81.9999 70.5623L79.9501 73.7965L81.9999 77.1673L78.9934 79.4905L79.7678 83.3624L76.1236 84.5012L75.5315 88.4187L71.7052 88.2365L69.7919 91.744L66.2845 90.2863L63.3235 92.8828L60.4993 90.2863L56.8096 91.744L55.0331 88.3276L51.0701 88.4187L50.6146 84.6379L46.8338 83.3624L47.6993 79.6727L44.6017 77.1673L46.6516 73.9787L44.6017 70.5623L47.6081 68.2392L46.8338 64.3673L50.4779 63.2285L51.0701 59.311L54.8965 59.4932L56.8096 56.0313L60.3172 57.4889L63.3235 54.8925Z" stroke="#EF7F1A" stroke-width="1.37339" stroke-miterlimit="22.9256" stroke-linecap="round" stroke-linejoin="round"/>
<path d="M70.5663 71.7011H66.5577V79.5816H70.5663V71.7011Z" stroke="#EF7F1A" stroke-width="0.686695" stroke-miterlimit="22.9256" stroke-linecap="round" stroke-linejoin="round"/>
<path d="M66.5577 72.521C65.6012 71.7922 64.6901 71.0633 64.0979 70.4712C63.5057 69.879 63.3236 69.3779 63.1414 68.8768C62.9136 68.3758 62.7769 67.8292 62.6858 67.3736C62.5947 66.8726 62.5492 66.4626 62.5036 66.1437C62.4581 65.8704 62.367 65.7338 62.1392 65.6882C61.957 65.5971 61.6837 65.6427 61.4104 65.6882C61.1826 65.7338 61.0004 65.7793 60.8182 66.0526C60.6816 66.3259 60.5449 66.7815 60.4993 67.3281C60.4082 67.9203 60.4082 68.6035 60.4993 69.2868C60.5449 69.9245 60.6816 70.5167 60.8182 70.9267C61.0004 71.3367 61.1826 71.5189 61.2282 71.61C61.2737 71.7011 61.1371 71.7011 60.2716 71.7011C59.4516 71.7011 57.8573 71.7011 56.9918 71.7466C56.1719 71.7922 56.0808 71.8377 55.8986 72.0199C55.762 72.1566 55.5798 72.3843 55.5342 72.6577C55.4431 72.8854 55.4431 73.1132 55.5797 73.3409C55.7164 73.6143 55.9897 73.842 56.0808 73.9787C56.2175 74.1153 56.1719 74.1609 56.0808 74.2064C56.0353 74.2975 55.9442 74.4342 55.8986 74.6164C55.8531 74.7986 55.8986 75.0719 55.9897 75.2541C56.1263 75.4819 56.3086 75.7096 56.4452 75.8463C56.5819 75.9374 56.673 75.983 56.7185 76.0285C56.7185 76.0741 56.673 76.1196 56.5819 76.2563C56.5363 76.3929 56.4452 76.6207 56.4452 76.894C56.4452 77.1673 56.5363 77.4406 56.7641 77.6684C56.9463 77.8506 57.2652 78.0328 57.4018 78.1239C57.5385 78.1694 57.4929 78.215 57.4474 78.3061C57.3563 78.3517 57.3107 78.4883 57.3563 78.6705C57.3563 78.8983 57.4929 79.1716 57.6751 79.3994C57.8574 79.5816 58.1307 79.7638 59.1784 79.8093C60.2716 79.8549 62.1392 79.8093 63.5058 79.6271C64.8723 79.3994 65.7378 78.9894 66.5577 78.5794" stroke="#EF7F1A" stroke-width="0.686695" stroke-miterlimit="22.9256" stroke-linecap="round" stroke-linejoin="round"/>
</svg>
