<svg width="73" height="81" viewBox="0 0 73 81" fill="none" xmlns="http://www.w3.org/2000/svg">
<path fill-rule="evenodd" clip-rule="evenodd" d="M6.17648 12.0476H21.3162L21.8382 13.6138L18.7059 15.702L20.7941 18.8344L18.7059 21.9667L21.8382 24.055V25.0991H6.17648L8.78678 18.3123L6.17648 12.0476Z" stroke="#EF7F1A" stroke-width="2.08824" stroke-miterlimit="22.9256" stroke-linecap="round" stroke-linejoin="round"/>
<path fill-rule="evenodd" clip-rule="evenodd" d="M67.2573 12.0476H51.5956L51.0735 13.6138L53.6838 15.702L52.1176 18.8344L53.6838 21.9667L51.0735 24.055V25.0991H67.2573L64.125 18.3123L67.2573 12.0476Z" stroke="#EF7F1A" stroke-width="2.08824" stroke-miterlimit="22.9256" stroke-linecap="round" stroke-linejoin="round"/>
<path fill-rule="evenodd" clip-rule="evenodd" d="M36.4559 1.08447L39.0662 3.69477L42.7206 2.12859L44.2868 5.26094H47.9412L48.4632 8.91536L51.5956 9.95947L51.0735 13.6139L53.6838 15.7021L52.1176 18.8345L53.6838 21.9668L51.0735 24.0551L51.5956 27.7095L48.4632 28.7536L47.9412 32.408H44.2868L42.7206 35.5404L39.0662 33.9742L36.4559 36.5845L33.8456 33.9742L30.1912 35.5404L28.625 32.408H24.9706L24.4485 28.7536L20.7941 27.7095L21.8382 24.0551L18.7059 21.9668L20.7941 18.8345L18.7059 15.7021L21.8382 13.6139L20.7941 9.95947L24.4485 8.91536L24.9706 5.26094H28.625L30.1912 2.12859L33.8456 3.69477L36.4559 1.08447Z" stroke="#EF7F1A" stroke-width="2.08824" stroke-miterlimit="22.9256" stroke-linecap="round" stroke-linejoin="round"/>
<path fill-rule="evenodd" clip-rule="evenodd" d="M36.4559 5.78296L38.5441 7.87119L40.6324 6.82708L42.1985 8.91531H44.8088V11.5256L47.4191 12.5697L46.8971 14.658L48.9853 16.7462L47.4191 18.8344L48.9853 20.9227L46.8971 22.4888L47.4191 25.0991L44.8088 26.1433V28.7535L42.1985 28.2315L40.6324 30.8418L38.5441 29.7977L36.4559 31.3638L34.3677 29.7977L32.2794 30.8418L30.7132 28.7535H28.103V26.1433L25.4927 25.0991L26.0147 22.4888L23.9265 20.9227L24.9706 18.8344L23.9265 16.7462L26.0147 15.18L25.4927 12.5697L27.5809 11.5256L28.103 8.91531H30.7132L32.2794 6.82708L34.3677 7.87119L36.4559 5.78296Z" stroke="#EF7F1A" stroke-width="1.04412" stroke-miterlimit="22.9256" stroke-linecap="round" stroke-linejoin="round"/>
<path fill-rule="evenodd" clip-rule="evenodd" d="M33.8456 13.6138V10.4814H40.1103V13.6138H38.5441V24.055H40.1103V26.6653H33.8456V24.055H35.4118V13.6138H33.8456Z" stroke="#EF7F1A" stroke-width="1.04412" stroke-miterlimit="22.9256" stroke-linecap="round" stroke-linejoin="round"/>
<path fill-rule="evenodd" clip-rule="evenodd" d="M27.5809 38.6726L28.625 40.2388L30.7132 40.7608L29.6691 42.327V44.4153L27.5809 43.8932L25.4926 44.4153V42.327L24.4485 40.7608L26.0147 40.2388L27.5809 38.6726Z" stroke="#EF7F1A" stroke-width="1.04412" stroke-miterlimit="22.9256" stroke-linecap="round" stroke-linejoin="round"/>
<path fill-rule="evenodd" clip-rule="evenodd" d="M36.9779 39.7168L38.0221 41.283L40.1103 42.3271L39.0662 43.8933V45.9815L36.9779 45.4594L34.8897 45.9815V43.8933L33.8456 42.3271L35.4118 41.283L36.9779 39.7168Z" stroke="#EF7F1A" stroke-width="1.04412" stroke-miterlimit="22.9256" stroke-linecap="round" stroke-linejoin="round"/>
<path fill-rule="evenodd" clip-rule="evenodd" d="M46.375 38.1506L47.4191 39.7168L49.5074 40.2389L48.4632 41.805V43.8933L46.375 43.3712L44.2868 43.8933V42.3271L43.2426 40.2389L44.8088 39.7168L46.375 38.1506Z" stroke="#EF7F1A" stroke-width="1.04412" stroke-miterlimit="22.9256" stroke-linecap="round" stroke-linejoin="round"/>
<path fill-rule="evenodd" clip-rule="evenodd" d="M42.1985 47.5476L43.2426 49.6358L45.3309 50.1579L44.2867 51.7241V53.8123L42.1985 53.2903L40.1103 53.8123V51.7241L39.0662 50.1579L41.1544 49.6358L42.1985 47.5476Z" stroke="#EF7F1A" stroke-width="1.04412" stroke-miterlimit="22.9256" stroke-linecap="round" stroke-linejoin="round"/>
<path fill-rule="evenodd" clip-rule="evenodd" d="M31.7574 47.5476L33.3235 49.1138L35.4118 50.1579L33.8456 51.7241V53.8123L32.2794 53.2903L30.1912 53.8123V51.7241L28.625 50.1579L30.7132 49.6358L31.7574 47.5476Z" stroke="#EF7F1A" stroke-width="1.04412" stroke-miterlimit="22.9256" stroke-linecap="round" stroke-linejoin="round"/>
<path fill-rule="evenodd" clip-rule="evenodd" d="M27.0588 69.9962C27.0588 67.3859 27.0588 63.2094 26.5368 60.5991C26.0147 57.9889 24.9706 56.4227 23.9265 55.3786C22.8824 54.3344 22.3603 53.2903 21.3162 52.2462C20.2721 51.2021 19.2279 50.158 18.1838 48.5918C16.6176 47.0256 14.5294 44.4153 13.4853 43.3712C11.9191 42.3271 10.875 42.8492 10.3529 42.8492C9.83088 43.3712 9.30882 43.8933 9.83088 44.4153C9.83088 44.9374 9.83088 45.4594 10.875 47.0256C11.9191 48.5918 12.9632 50.158 13.4853 51.7242C14.5294 53.2903 14.5294 54.3344 14.5294 54.8565C14.0074 55.3786 13.4853 55.3786 12.4412 53.8124C11.3971 52.2462 9.83088 49.6359 8.78677 47.5477C7.74265 45.4594 7.22059 44.4153 7.22059 42.3271C6.69853 40.2389 6.69853 37.1065 6.17647 35.0183C6.17647 33.4521 5.65441 31.8859 5.13235 31.3639C4.61029 30.8418 3.56618 30.8418 3.04412 30.8418C2.52206 31.3639 2 31.8859 2 32.408C2 33.4521 2 33.9742 2.52206 37.1065C2.52206 40.2389 3.04412 45.9815 3.04412 48.5918C3.56618 51.7242 3.56618 51.7241 5.65441 54.3344C7.74265 56.9447 11.3971 61.1212 13.4853 63.7315C15.0515 66.3418 15.0515 66.3418 15.5735 67.3859C15.5735 67.908 15.5735 68.9521 15.5735 69.9962H27.0588Z" stroke="#EF7F1A" stroke-width="2.08824" stroke-miterlimit="22.9256" stroke-linecap="round" stroke-linejoin="round"/>
<path d="M5.65442 32.93C6.17648 32.93 6.17648 32.408 6.69854 32.408C7.2206 32.408 7.74265 32.408 8.26471 32.93L8.78677 33.4521C8.78677 33.9741 9.30883 34.4962 9.30883 36.0624C9.83089 37.6285 10.3529 40.2388 10.875 42.8491" stroke="#EF7F1A" stroke-width="2.08824" stroke-miterlimit="22.9256" stroke-linecap="round" stroke-linejoin="round"/>
<path d="M9.30884 34.4963C9.30884 34.4963 9.8309 34.4963 10.353 34.4963C10.353 34.4963 10.875 34.4963 11.3971 35.0184C11.3971 35.0184 11.9191 35.5405 11.9191 36.0625C12.4412 36.5846 12.4412 37.6287 12.9633 39.1949C12.9633 40.239 13.4853 42.3272 14.0074 44.4155" stroke="#EF7F1A" stroke-width="2.08824" stroke-miterlimit="22.9256" stroke-linecap="round" stroke-linejoin="round"/>
<path d="M28.625 69.9963H12.9632V79.9155H28.625V69.9963Z" stroke="#EF7F1A" stroke-width="2.08824" stroke-miterlimit="22.9256" stroke-linecap="round" stroke-linejoin="round"/>
<path fill-rule="evenodd" clip-rule="evenodd" d="M45.3309 69.9963C45.3309 67.9081 45.3309 63.7316 45.8529 60.5992C46.375 57.989 47.4191 56.9448 48.4632 55.9007C49.5073 54.3345 50.5515 53.2904 51.5956 52.7684C52.6397 51.7242 53.1618 50.6801 54.7279 49.114C56.2941 47.0257 58.3823 44.9375 59.4265 43.8934C60.9926 42.8492 62.0368 42.8492 62.5588 43.3713C63.0809 43.3713 63.6029 43.8934 63.6029 44.4154C63.0809 44.9375 63.0809 45.9816 62.0368 47.0257C61.5147 48.5919 59.9485 50.6801 59.4265 52.2463C58.3823 53.8125 58.3823 54.8566 58.3823 55.3787C58.9044 55.9007 59.4265 55.9007 60.4706 54.3345C61.5147 52.7684 63.0809 49.636 64.125 47.5478C65.1691 45.4595 65.6912 44.4154 65.6912 42.3272C66.2132 40.239 66.7353 37.6287 66.7353 35.5404C67.2573 33.4522 67.2573 32.4081 67.7794 31.364C68.3015 30.8419 69.3456 30.8419 69.8676 31.364C70.3897 31.364 70.9118 31.886 70.9118 32.9301C71.4338 33.4522 70.9118 34.4963 70.9118 37.6287C70.3897 40.761 70.3897 45.9816 69.8676 48.5919C69.3456 51.7242 69.3456 52.2463 67.2573 54.3345C65.1691 56.9448 61.5147 61.6434 59.4265 63.7316C57.8603 66.3419 57.3382 66.3419 57.3382 67.386C57.3382 67.9081 57.3382 68.9522 57.3382 69.9963H45.3309V69.9963Z" stroke="#EF7F1A" stroke-width="2.08824" stroke-miterlimit="22.9256" stroke-linecap="round" stroke-linejoin="round"/>
<path d="M67.2573 32.9301C66.7353 32.9301 66.7353 32.9301 66.2132 32.9301C65.6912 32.4081 65.1691 32.4081 65.1691 32.9301C64.6471 32.9301 64.125 33.4522 64.125 33.9742C64.125 33.9742 64.125 34.4963 63.6029 36.0625C63.0809 37.6286 62.5588 40.2389 62.0368 42.8492" stroke="#EF7F1A" stroke-width="2.08824" stroke-miterlimit="22.9256" stroke-linecap="round" stroke-linejoin="round"/>
<path d="M63.603 35.0183C63.603 35.0183 63.0809 35.0183 62.5588 35.0183C62.5588 35.0183 62.0368 35.0183 61.5147 35.0183C61.5147 35.5404 60.9927 35.5404 60.9927 36.0624C60.4706 37.1065 60.4706 37.6286 59.9485 39.1948C59.4265 40.761 59.4265 42.3271 58.9044 44.4154" stroke="#EF7F1A" stroke-width="2.08824" stroke-miterlimit="22.9256" stroke-linecap="round" stroke-linejoin="round"/>
<path d="M59.4265 69.9963H43.2426V79.9155H59.4265V69.9963Z" stroke="#EF7F1A" stroke-width="2.08824" stroke-miterlimit="22.9256" stroke-linecap="round" stroke-linejoin="round"/>
</svg>
