<svg width="96" height="81" viewBox="0 0 96 81" fill="none" xmlns="http://www.w3.org/2000/svg">
<path d="M24.4349 0H90.9566C91.3914 0 91.8262 0.434783 91.8262 0.869565V72.1739C91.8262 72.6087 91.3914 73.0435 90.9566 73.0435H24.4349C24.0001 73.0435 23.5653 72.6087 23.5653 72.1739V60.8696H25.3044V70.8696H90.087V2.17391H25.3044V39.1304H23.5653V0.869565C23.5653 0.434783 24.0001 0 24.4349 0V0Z" fill="#EF7F1A"/>
<path fill-rule="evenodd" clip-rule="evenodd" d="M28.3479 5.21729H87.0436V67.826H28.3479V60.8695H31.3914V64.7825H53.1305V8.26076H31.3914V39.1303H28.3479V5.21729Z" stroke="#EF7F1A" stroke-width="0.869565" stroke-miterlimit="22.9256" stroke-linecap="round" stroke-linejoin="round"/>
<path fill-rule="evenodd" clip-rule="evenodd" d="M31.3914 8.26099H53.1305V64.7827H31.3914V60.8697H44.8696C47.0436 60.8697 49.2175 58.6958 49.2175 56.0871V43.4784C49.2175 41.3045 47.0436 39.1306 44.8696 39.1306H31.3914V8.26099V8.26099Z" stroke="#EF7F1A" stroke-width="0.869565" stroke-miterlimit="22.9256" stroke-linecap="round" stroke-linejoin="round"/>
<path fill-rule="evenodd" clip-rule="evenodd" d="M55.7392 6.52173H85.7392V66.5217H55.7392V6.52173V6.52173ZM58.3479 9.56521H82.6957V63.4783H58.3479V36.0869H57.4784C57.0436 36.0869 56.6088 35.6522 56.6088 35.2174C56.6088 34.7826 57.0436 34.3478 57.4784 34.3478H58.3479V9.56521V9.56521Z" stroke="#EF7F1A" stroke-width="0.869565" stroke-miterlimit="22.9256" stroke-linecap="round" stroke-linejoin="round"/>
<path d="M94.0001 72.1738H20.087V79.1304H94.0001V72.1738Z" stroke="#EF7F1A" stroke-width="2.17391" stroke-miterlimit="22.9256" stroke-linecap="round" stroke-linejoin="round"/>
<path d="M61.3914 34.3479H56.6088C56.1285 34.3479 55.7392 34.7372 55.7392 35.2175V35.6522C55.7392 36.1325 56.1285 36.5218 56.6088 36.5218H61.3914C61.8716 36.5218 62.261 36.1325 62.261 35.6522V35.2175C62.261 34.7372 61.8716 34.3479 61.3914 34.3479Z" stroke="#EF7F1A" stroke-width="0.869565" stroke-miterlimit="22.9256" stroke-linecap="round" stroke-linejoin="round"/>
<path fill-rule="evenodd" clip-rule="evenodd" d="M12.6957 39.1304H44.8696C47.0436 39.1304 49.2175 41.3043 49.2175 43.4782V56.0869C49.2175 58.6956 47.0436 60.8695 44.8696 60.8695H12.6957C10.9566 60.8695 9.21748 59.1304 8.78269 57.3912C4.86965 56.9565 1.82617 53.913 1.82617 49.9999C1.82617 46.5217 4.86965 43.0434 8.78269 42.6086C9.21748 40.8695 10.9566 39.1304 12.6957 39.1304V39.1304Z" stroke="#EF7F1A" stroke-width="2.17391" stroke-miterlimit="22.9256"/>
<path d="M8.78271 52.6087C10.2235 52.6087 11.3914 51.4408 11.3914 50.0001C11.3914 48.5593 10.2235 47.3914 8.78271 47.3914C7.34196 47.3914 6.17401 48.5593 6.17401 50.0001C6.17401 51.4408 7.34196 52.6087 8.78271 52.6087Z" stroke="#EF7F1A" stroke-width="0.869565" stroke-miterlimit="22.9256"/>
<path d="M36.6088 48.6956H32.6957V56.5216H36.6088V48.6956Z" stroke="#EF7F1A" stroke-width="0.869565" stroke-miterlimit="22.9256"/>
<path d="M32.6957 49.5652C31.8262 49.1304 30.5218 48.2608 30.087 47.8261C29.6523 46.9565 29.2175 46.5217 29.2175 46.0869C29.2175 45.6521 28.7827 45.2174 28.7827 44.7826C28.7827 44.3478 28.7827 43.913 28.7827 43.4782C28.3479 43.0435 28.3479 43.0435 28.3479 43.0435C27.9131 43.0435 27.9131 43.0435 27.4783 43.0435C27.4783 43.0435 27.0436 43.0435 27.0436 43.4782C26.6088 43.4782 26.6088 43.913 26.6088 44.7826C26.6088 45.2174 26.6088 46.0869 26.6088 46.5217C26.6088 46.9565 26.6088 47.8261 27.0436 48.2608C27.0436 48.6956 27.4783 48.6956 27.4783 48.6956C27.4783 48.6956 27.4783 48.6956 26.6088 48.6956C25.7392 48.6956 24.0001 48.6956 23.1305 49.1304C22.261 49.1304 22.261 49.1304 22.261 49.1304C22.261 49.1304 21.8262 49.5652 21.8262 50V50.4348C21.8262 50.8695 22.261 50.8695 22.261 51.3043V51.7391V52.1739C22.261 52.6087 22.6957 52.6087 22.6957 53.0435H23.1305C23.1305 53.0435 23.1305 53.0435 22.6957 53.4782C22.6957 53.4782 22.6957 53.4782 22.6957 53.913C22.6957 54.3478 22.6957 54.3478 23.1305 54.7826L23.5653 55.2174V55.6522C23.5653 56.0869 23.5653 56.0869 24.0001 56.5217C24.0001 56.5217 24.4349 56.5217 25.3044 56.9565C26.6088 56.9565 28.3479 56.9565 29.6523 56.5217C30.9566 56.5217 31.8262 56.0869 32.6957 55.6522" stroke="#EF7F1A" stroke-width="0.869565" stroke-miterlimit="22.9256"/>
<path d="M9.65227 52.1739C9.65227 51.7391 9.65227 50.8695 9.21749 50.4348C8.78271 50 7.47836 50 6.17401 50.8695C4.43488 51.7391 3.13053 53.913 3.13053 55.6522C2.69575 57.8261 4.0001 60.4348 5.73923 62.1739C7.91314 63.4782 10.9566 64.7826 13.1305 65.6522C15.7392 66.5217 17.4784 67.3913 18.3479 68.2608C19.6523 69.5652 19.6523 70.8695 20.0871 72.1739" stroke="#EF7F1A" stroke-width="0.869565" stroke-miterlimit="22.9256"/>
<path d="M12.6957 60.8696C14.4349 62.174 15.7392 63.9131 16.6088 65.2175C17.9131 66.5218 19.2175 67.3914 19.6523 68.2609C20.087 69.5653 20.087 70.8696 20.087 72.174" stroke="#EF7F1A" stroke-width="0.869565" stroke-miterlimit="22.9256"/>
</svg>
