<svg width="75" height="86" viewBox="0 0 75 86" fill="none" xmlns="http://www.w3.org/2000/svg">
<path fill-rule="evenodd" clip-rule="evenodd" d="M1 7.4895H15.7908V10.8294H43.9412V7.4895H59.2092V50.9078C58.732 50.9078 57.7778 50.9078 57.3007 50.9078C55.3922 50.9078 53.9608 50.9078 52.5294 51.3849V15.6006H15.3137L8.15686 21.8032V67.13H40.6013V67.6071C40.6013 69.9928 41.0784 72.3784 42.0327 74.2869H1V7.4895V7.4895Z" stroke="#EF7F1A" stroke-width="1.80791" stroke-miterlimit="22.9256" stroke-linecap="round" stroke-linejoin="round"/>
<path fill-rule="evenodd" clip-rule="evenodd" d="M15.7908 4.14941H24.3791V5.10366H34.8758V4.14941H43.9412V10.8292H15.7908V4.14941Z" stroke="#EF7F1A" stroke-width="1.80791" stroke-miterlimit="22.9256" stroke-linecap="round" stroke-linejoin="round"/>
<path d="M34.8758 1.76392H24.3791V5.10379H34.8758V1.76392Z" stroke="#EF7F1A" stroke-width="1.80791" stroke-miterlimit="22.9256" stroke-linecap="round" stroke-linejoin="round"/>
<path fill-rule="evenodd" clip-rule="evenodd" d="M15.3137 15.6006H52.5294V51.3849C45.8497 53.2934 40.6013 59.496 40.6013 67.13H8.15687V21.8032L15.3137 15.6006V15.6006Z" stroke="#EF7F1A" stroke-width="1.80791" stroke-miterlimit="22.9256" stroke-linecap="round" stroke-linejoin="round"/>
<path fill-rule="evenodd" clip-rule="evenodd" d="M15.3137 15.6006L8.15687 21.8032H15.3137V15.6006Z" stroke="#EF7F1A" stroke-width="0.903955" stroke-miterlimit="22.9256" stroke-linecap="round" stroke-linejoin="round"/>
<path d="M21.0392 28.0056H13.8824V34.6854H21.0392V28.0056Z" stroke="#EF7F1A" stroke-width="0.903955" stroke-miterlimit="22.9256" stroke-linecap="round" stroke-linejoin="round"/>
<path d="M21.0392 41.3652H13.8824V48.045H21.0392V41.3652Z" stroke="#EF7F1A" stroke-width="0.903955" stroke-miterlimit="22.9256" stroke-linecap="round" stroke-linejoin="round"/>
<path d="M21.0392 53.7705H13.8824V60.4502H21.0392V53.7705Z" stroke="#EF7F1A" stroke-width="0.903955" stroke-miterlimit="22.9256" stroke-linecap="round" stroke-linejoin="round"/>
<path d="M25.3333 30.3914H47.281" stroke="#EF7F1A" stroke-width="0.903955" stroke-miterlimit="22.9256" stroke-linecap="round" stroke-linejoin="round"/>
<path d="M25.8105 32.7769H39.1699" stroke="#EF7F1A" stroke-width="0.903955" stroke-miterlimit="22.9256" stroke-linecap="round" stroke-linejoin="round"/>
<path d="M25.3333 43.2737H47.281" stroke="#EF7F1A" stroke-width="0.903955" stroke-miterlimit="22.9256" stroke-linecap="round" stroke-linejoin="round"/>
<path d="M25.8105 45.6594H39.1699" stroke="#EF7F1A" stroke-width="0.903955" stroke-miterlimit="22.9256" stroke-linecap="round" stroke-linejoin="round"/>
<path d="M25.3333 56.156H44.8954" stroke="#EF7F1A" stroke-width="0.903955" stroke-miterlimit="22.9256" stroke-linecap="round" stroke-linejoin="round"/>
<path d="M25.8105 58.5417H39.1699" stroke="#EF7F1A" stroke-width="0.903955" stroke-miterlimit="22.9256" stroke-linecap="round" stroke-linejoin="round"/>
<path d="M15.3137 31.3455L17.2222 33.254L20.085 29.437" stroke="#EF7F1A" stroke-width="0.903955" stroke-miterlimit="22.9256" stroke-linecap="round" stroke-linejoin="round"/>
<path d="M15.3137 44.228L17.2222 46.6136L20.085 42.7966" stroke="#EF7F1A" stroke-width="0.903955" stroke-miterlimit="22.9256" stroke-linecap="round" stroke-linejoin="round"/>
<path d="M15.3137 57.1104L17.2222 59.0189L20.085 55.2019" stroke="#EF7F1A" stroke-width="0.903955" stroke-miterlimit="22.9256" stroke-linecap="round" stroke-linejoin="round"/>
<path d="M57.3007 84.3064C66.5235 84.3064 74 76.8299 74 67.6071C74 58.3843 66.5235 50.9077 57.3007 50.9077C48.0779 50.9077 40.6013 58.3843 40.6013 67.6071C40.6013 76.8299 48.0779 84.3064 57.3007 84.3064Z" stroke="#EF7F1A" stroke-width="1.80791" stroke-miterlimit="22.9256"/>
<path d="M66.8431 65.2214H61.5948V75.7182H66.8431V65.2214Z" stroke="#EF7F1A" stroke-width="0.903955" stroke-miterlimit="22.9256"/>
<path d="M61.5948 66.1757C60.6405 65.2215 59.2092 64.2672 58.732 63.313C57.7778 62.8358 57.3007 61.8816 57.3007 61.4045C56.8235 60.9273 56.8235 59.9731 56.8235 59.496C56.3464 58.5417 56.3464 58.0646 56.3464 57.5875C56.3464 57.5875 56.3464 57.1104 55.8693 57.1104C55.8693 57.1104 55.3922 57.1104 54.915 57.1104C54.4379 57.1104 54.4379 57.1104 54.4379 57.5875C53.9608 58.0646 53.9608 58.5417 53.9608 59.496C53.4837 59.9731 53.4837 60.9273 53.9608 61.8816C53.9608 62.8358 53.9608 63.313 54.4379 64.2672C54.4379 64.7443 54.915 64.7443 54.915 64.7443C54.915 65.2215 54.4379 65.2215 53.4837 65.2215C52.5294 65.2215 50.1438 65.2215 49.1895 65.2215C48.2353 65.2215 47.7582 65.2215 47.7582 65.2215C47.7582 65.6986 47.281 66.1757 47.281 66.1757C47.281 66.6528 47.281 67.13 47.281 67.13C47.7582 67.6071 47.7582 68.0842 48.2353 68.0842C48.2353 68.0842 48.2353 68.0842 48.2353 68.5613C47.7582 68.5613 47.7582 68.5613 47.7582 69.0385V69.5156C48.2353 69.9927 48.2353 70.4698 48.2353 70.4698C48.7124 70.4698 48.7124 70.4698 48.7124 70.947C48.7124 71.4241 48.2353 71.4241 48.2353 71.9012C48.2353 72.3783 48.7124 72.3783 48.7124 72.8555C49.1895 73.3326 49.6667 73.3326 49.6667 73.3326V73.8097C49.6667 73.8097 49.6667 73.8097 49.6667 74.2868C49.6667 74.2868 49.6667 74.7639 50.1438 75.2411C50.1438 75.2411 50.6209 75.7182 52.0523 75.7182C53.4837 75.7182 55.8693 75.7182 57.7778 75.2411C59.6863 75.2411 60.6405 74.7639 61.5948 74.2868" stroke="#EF7F1A" stroke-width="0.903955" stroke-miterlimit="22.9256"/>
</svg>
